<svg width="28" height="28" viewBox="0 0 28 28" fill="none" xmlns="http://www.w3.org/2000/svg">
<path d="M17.4475 8.53998L19.1152 15.2092C17.7782 15.5365 15.995 15.75 14 15.75C12.005 15.75 10.2235 15.5365 8.88474 15.2092L10.5525 8.53998C11.6112 8.67473 12.775 8.74998 14 8.74998C15.225 8.74998 16.3887 8.67473 17.4475 8.53998ZM17.0187 6.82848L15.6975 1.53998C15.2565 -0.22752 12.7435 -0.22752 12.3025 1.53998L10.9812 6.82498C11.9 6.93873 12.9185 6.99998 14 6.99998C15.0815 6.99998 16.1 6.93698 17.0187 6.82848ZM24.7117 21.9012C24.8959 21.9468 25.0602 22.051 25.18 22.1981C25.2998 22.3453 25.3685 22.5273 25.3758 22.7169C25.3831 22.9064 25.3286 23.0933 25.2205 23.2492C25.1124 23.4051 24.9566 23.5216 24.7765 23.5812L14.2765 27.0812C14.097 27.141 13.903 27.141 13.7235 27.0812L3.22349 23.5812C3.0434 23.5216 2.88757 23.4051 2.77947 23.2492C2.67138 23.0933 2.61688 22.9064 2.62418 22.7169C2.63149 22.5273 2.70021 22.3453 2.81998 22.1981C2.93975 22.051 3.10409 21.9468 3.28824 21.9012L7.47249 20.8547L8.46124 16.905C9.96974 17.276 11.8982 17.4982 14 17.4982C16.1017 17.4982 18.0302 17.276 19.5387 16.905L20.5275 20.8547L24.7117 21.9012Z" fill="url(#paint0_linear_31_272)"/>
<defs>
<linearGradient id="paint0_linear_31_272" x1="14" y1="0.214355" x2="14" y2="27.1261" gradientUnits="userSpaceOnUse">
<stop stop-color="#0D9488"/>
<stop offset="1"/>
</linearGradient>
</defs>
</svg>
