<svg width="28" height="28" viewBox="0 0 28 28" fill="none" xmlns="http://www.w3.org/2000/svg">
<path fill-rule="evenodd" clip-rule="evenodd" d="M12.6175 1.4C13.4575 0.51625 14 0 14 0C14.1913 0.634667 14.4078 1.24017 14.6493 1.8165C16.0703 5.222 18.277 7.679 20.244 9.8665C22.5365 12.418 24.5 14.6038 24.5 17.5C24.5 20.2848 23.3938 22.9555 21.4246 24.9246C19.4555 26.8938 16.7848 28 14 28C11.2152 28 8.54451 26.8938 6.57538 24.9246C4.60625 22.9555 3.5 20.2848 3.5 17.5C3.5 11.669 9.765 4.40475 12.6175 1.4ZM13.3403 3.18675C12.216 4.40249 11.1479 5.66906 10.1395 6.9825C8.869 8.645 7.6265 10.4965 6.7095 12.355C5.782 14.2327 5.25 15.9915 5.25 17.5C5.25 17.5 9.625 20.125 14 18.375C18.375 16.625 22.75 17.5 22.75 17.5C22.75 15.3983 21.357 13.7253 18.9333 11.025L18.8807 10.969C17.0625 8.9425 14.875 6.51175 13.3403 3.18675Z" fill="url(#paint0_linear_31_272)"/>
<path fill-rule="evenodd" clip-rule="evenodd" d="M7.96777 13.6079C9.40277 10.7361 10.9725 8.79012 11.6305 8.13037L12.8695 9.36937C12.362 9.87687 10.8955 11.6636 9.53227 14.3919L7.96777 13.6079Z" fill="url(#paint1_linear_31_272)"/>
<defs>
<linearGradient id="paint0_linear_31_272" x1="14" y1="0" x2="14" y2="28" gradientUnits="userSpaceOnUse">
<stop stop-color="#0D9488"/>
<stop offset="1"/>
</linearGradient>
<linearGradient id="paint1_linear_31_272" x1="10.4186" y1="8.13037" x2="10.4186" y2="14.3919" gradientUnits="userSpaceOnUse">
<stop stop-color="#0D9488"/>
<stop offset="1"/>
</linearGradient>
</defs>
</svg>
