<svg width="28" height="28" viewBox="0 0 28 28" fill="none" xmlns="http://www.w3.org/2000/svg">
<g clip-path="url(#clip0_31_272)">
<path d="M17.6173 1.52235C17.1463 1.0403 16.5836 0.657259 15.9624 0.395744C15.3412 0.134228 14.674 -0.000488281 14.0001 -0.000488281C13.3261 -0.000488281 12.6589 0.134228 12.0377 0.395744C11.4165 0.657259 10.8539 1.0403 10.3828 1.52235L9.29431 2.63885L7.73681 2.6196C7.06262 2.61162 6.39364 2.73853 5.76921 2.99286C5.14479 3.24719 4.57752 3.6238 4.10076 4.10056C3.624 4.57731 3.24739 5.14458 2.99306 5.76901C2.73873 6.39344 2.61183 7.06242 2.61981 7.7366L2.63731 9.2941L1.52431 10.3826C1.04225 10.8537 0.659213 11.4163 0.397697 12.0375C0.136181 12.6587 0.00146484 13.3259 0.00146484 13.9999C0.00146484 14.6738 0.136181 15.341 0.397697 15.9622C0.659213 16.5834 1.04225 17.1461 1.52431 17.6171L2.63906 18.7056L2.61981 20.2631C2.61183 20.9373 2.73873 21.6063 2.99306 22.2307C3.24739 22.8551 3.624 23.4224 4.10076 23.8992C4.57752 24.3759 5.14479 24.7525 5.76921 25.0068C6.39364 25.2612 7.06262 25.3881 7.73681 25.3801L9.29431 25.3626L10.3828 26.4756C10.8539 26.9577 11.4165 27.3407 12.0377 27.6022C12.6589 27.8637 13.3261 27.9984 14.0001 27.9984C14.674 27.9984 15.3412 27.8637 15.9624 27.6022C16.5836 27.3407 17.1463 26.9577 17.6173 26.4756L18.7058 25.3609L20.2633 25.3801C20.9375 25.3881 21.6065 25.2612 22.2309 25.0068C22.8553 24.7525 23.4226 24.3759 23.8994 23.8992C24.3761 23.4224 24.7527 22.8551 25.0071 22.2307C25.2614 21.6063 25.3883 20.9373 25.3803 20.2631L25.3628 18.7056L26.4758 17.6171C26.9579 17.1461 27.3409 16.5834 27.6024 15.9622C27.8639 15.341 27.9986 14.6738 27.9986 13.9999C27.9986 13.3259 27.8639 12.6587 27.6024 12.0375C27.3409 11.4163 26.9579 10.8537 26.4758 10.3826L25.3611 9.2941L25.3803 7.7366C25.3883 7.06242 25.2614 6.39344 25.0071 5.76901C24.7527 5.14458 24.3761 4.57731 23.8994 4.10056C23.4226 3.6238 22.8553 3.24719 22.2309 2.99286C21.6065 2.73853 20.9375 2.61162 20.2633 2.6196L18.7058 2.6371L17.6173 1.52235ZM18.1196 11.9944L12.8696 17.2444C12.7883 17.3258 12.6917 17.3905 12.5854 17.4346C12.4791 17.4787 12.3651 17.5014 12.2501 17.5014C12.135 17.5014 12.021 17.4787 11.9147 17.4346C11.8084 17.3905 11.7118 17.3258 11.6306 17.2444L9.00556 14.6194C8.9242 14.538 8.85967 14.4414 8.81564 14.3351C8.77161 14.2288 8.74895 14.1149 8.74895 13.9999C8.74895 13.8848 8.77161 13.7709 8.81564 13.6646C8.85967 13.5583 8.9242 13.4617 9.00556 13.3804C9.08691 13.299 9.18349 13.2345 9.28978 13.1904C9.39608 13.1464 9.51 13.1237 9.62506 13.1237C9.74011 13.1237 9.85403 13.1464 9.96033 13.1904C10.0666 13.2345 10.1632 13.299 10.2446 13.3804L12.2501 15.3876L16.8806 10.7554C17.0449 10.5911 17.2677 10.4987 17.5001 10.4987C17.7324 10.4987 17.9553 10.5911 18.1196 10.7554C18.2839 10.9197 18.3762 11.1425 18.3762 11.3749C18.3762 11.6072 18.2839 11.8301 18.1196 11.9944Z" fill="url(#paint0_linear_31_272)"/>
</g>
<defs>
<linearGradient id="paint0_linear_31_272" x1="14.0001" y1="-0.000488281" x2="14.0001" y2="27.9984" gradientUnits="userSpaceOnUse">
<stop stop-color="#0D9488"/>
<stop offset="1"/>
</linearGradient>
<clipPath id="clip0_31_272">
<rect width="28" height="28" fill="white"/>
</clipPath>
</defs>
</svg>
