<svg width="28" height="28" viewBox="0 0 28 28" fill="none" xmlns="http://www.w3.org/2000/svg">
<path d="M3.5 3.5C3.5 3.03587 3.68437 2.59075 4.01256 2.26256C4.34075 1.93437 4.78587 1.75 5.25 1.75H13.2755C13.7396 1.7501 14.1846 1.93454 14.5128 2.26275L26.7628 14.5128C27.0908 14.8409 27.2751 15.286 27.2751 15.75C27.2751 16.214 27.0908 16.6591 26.7628 16.9872L18.7372 25.0128C18.4091 25.3408 17.964 25.5251 17.5 25.5251C17.036 25.5251 16.5909 25.3408 16.2628 25.0128L4.01275 12.7628C3.68454 12.4346 3.5001 11.9896 3.5 11.5255V3.5ZM9.625 10.5C10.3212 10.5 10.9889 10.2234 11.4812 9.73116C11.9734 9.23887 12.25 8.57119 12.25 7.875C12.25 7.17881 11.9734 6.51113 11.4812 6.01884C10.9889 5.52656 10.3212 5.25 9.625 5.25C8.92881 5.25 8.26113 5.52656 7.76884 6.01884C7.27656 6.51113 7 7.17881 7 7.875C7 8.57119 7.27656 9.23887 7.76884 9.73116C8.26113 10.2234 8.92881 10.5 9.625 10.5Z" fill="url(#paint0_linear_31_272)"/>
<path d="M2.26275 13.6378C1.93454 13.3096 1.7501 12.8646 1.75 12.4005V3.5C1.28587 3.5 0.840752 3.68437 0.512563 4.01256C0.184375 4.34075 0 4.78587 0 5.25L0 13.2755C9.91155e-05 13.7396 0.184539 14.1846 0.51275 14.5128L12.7628 26.7628C13.0909 27.0908 13.536 27.2751 14 27.2751C14.464 27.2751 14.9091 27.0908 15.2372 26.7628L15.3125 26.6875L2.26275 13.6378Z" fill="url(#paint1_linear_31_272)"/>
<defs>
<linearGradient id="paint0_linear_31_272" x1="15.3876" y1="1.75" x2="15.3876" y2="25.5251" gradientUnits="userSpaceOnUse">
<stop stop-color="#0D9488"/>
<stop offset="1"/>
</linearGradient>
<linearGradient id="paint1_linear_31_272" x1="7.65625" y1="3.5" x2="7.65625" y2="27.2751" gradientUnits="userSpaceOnUse">
<stop stop-color="#0D9488"/>
<stop offset="1"/>
</linearGradient>
</defs>
</svg>
