<svg width="28" height="28" viewBox="0 0 28 28" fill="none" xmlns="http://www.w3.org/2000/svg">
<path d="M8.16659 25.6666H19.8333C21.1166 25.6666 22.1666 24.6166 22.1666 23.3333V4.66659C22.1666 3.38325 21.1166 2.33325 19.8333 2.33325H8.16659C6.88325 2.33325 5.83325 3.38325 5.83325 4.66659V23.3333C5.83325 24.6166 6.88325 25.6666 8.16659 25.6666ZM8.16659 4.66659H19.8333V23.3333H8.16659V4.66659Z" fill="#0D9488"/>
<path d="M13.9999 19.8333C13.6905 19.8333 13.3938 19.9562 13.175 20.175C12.9562 20.3938 12.8333 20.6905 12.8333 20.9999C12.8333 21.3093 12.9562 21.6061 13.175 21.8249C13.3938 22.0437 13.6905 22.1666 13.9999 22.1666C14.3093 22.1666 14.6061 22.0437 14.8249 21.8249C15.0437 21.6061 15.1666 21.3093 15.1666 20.9999C15.1666 20.6905 15.0437 20.3938 14.8249 20.175C14.6061 19.9562 14.3093 19.8333 13.9999 19.8333Z" fill="#0D9488"/>
</svg>
