<svg width="28" height="28" viewBox="0 0 28 28" fill="none" xmlns="http://www.w3.org/2000/svg">
<g clip-path="url(#clip0_31_272)">
<path d="M9.33319 12.5532H8.65653C7.73312 12.5199 6.8127 12.6766 5.95239 13.0138C5.09209 13.3509 4.31026 13.8613 3.65542 14.5132L3.46875 14.731V21.171H6.64208V17.5155L7.06986 17.0332L7.26431 16.8077C8.27691 15.7674 9.53758 15.0019 10.9276 14.5832C10.2319 14.0534 9.68309 13.3547 9.33319 12.5532Z" fill="url(#paint0_linear_31_272)"/>
<path d="M24.3756 14.4898C23.7208 13.8379 22.939 13.3275 22.0787 12.9903C21.2184 12.6532 20.2979 12.4964 19.3745 12.5298C19.0913 12.5313 18.8084 12.5469 18.5267 12.5765C18.1703 13.3283 17.6365 13.9823 16.9712 14.482C18.4553 14.8922 19.7997 15.6988 20.8601 16.8153L21.0545 17.0331L21.4745 17.5153V21.1787H24.539V14.7076L24.3756 14.4898Z" fill="url(#paint1_linear_31_272)"/>
<path d="M8.6334 11.0367H8.87451C8.76248 10.0748 8.93126 9.10097 9.36049 8.23286C9.78971 7.36475 10.461 6.63943 11.2934 6.14446C10.9917 5.6835 10.5754 5.30882 10.0854 5.05708C9.59531 4.80534 9.04829 4.68519 8.49786 4.70839C7.94743 4.73158 7.41245 4.89733 6.94532 5.1894C6.4782 5.48148 6.09493 5.88986 5.83305 6.37456C5.57117 6.85926 5.43967 7.40367 5.45141 7.95446C5.46315 8.50526 5.61773 9.04356 5.90002 9.51667C6.18231 9.98977 6.58263 10.3815 7.06178 10.6534C7.54093 10.9253 8.08248 11.0681 8.6334 11.0678V11.0367Z" fill="url(#paint2_linear_31_272)"/>
<path d="M19.001 10.4535C19.0098 10.6323 19.0098 10.8114 19.001 10.9902C19.1502 11.0141 19.3009 11.0271 19.4521 11.0291H19.5998C20.1483 10.9998 20.6799 10.8291 21.1428 10.5334C21.6057 10.2377 21.9842 9.82723 22.2414 9.34188C22.4985 8.85652 22.6257 8.31284 22.6103 7.76378C22.595 7.21471 22.4378 6.67897 22.154 6.20871C21.8701 5.73844 21.4694 5.34969 20.9907 5.08028C20.512 4.81088 19.9717 4.67002 19.4225 4.6714C18.8732 4.67278 18.3336 4.81636 17.8563 5.08817C17.379 5.35998 16.9802 5.75075 16.6987 6.22243C17.4027 6.68205 17.9815 7.30922 18.3833 8.04769C18.7852 8.78617 18.9974 9.61284 19.001 10.4535Z" fill="url(#paint3_linear_31_272)"/>
<path d="M13.899 13.9377C15.8191 13.9377 17.3757 12.3812 17.3757 10.461C17.3757 8.54093 15.8191 6.98438 13.899 6.98438C11.9789 6.98438 10.4224 8.54093 10.4224 10.461C10.4224 12.3812 11.9789 13.9377 13.899 13.9377Z" fill="url(#paint4_linear_31_272)"/>
<path d="M14.0858 15.7887C13.0701 15.7481 12.0567 15.9133 11.1064 16.2741C10.1561 16.635 9.28852 17.1842 8.55577 17.8887L8.36133 18.1065V23.0298C8.36436 23.1902 8.39896 23.3484 8.46315 23.4954C8.52734 23.6424 8.61986 23.7753 8.73542 23.8865C8.85098 23.9977 8.98733 24.0851 9.13666 24.1436C9.286 24.2022 9.44541 24.2307 9.60577 24.2276H18.5424C18.7028 24.2307 18.8622 24.2022 19.0115 24.1436C19.1609 24.0851 19.2972 23.9977 19.4128 23.8865C19.5284 23.7753 19.6209 23.6424 19.6851 23.4954C19.7492 23.3484 19.7838 23.1902 19.7869 23.0298V18.122L19.6002 17.8887C18.8725 17.1816 18.008 16.6307 17.0597 16.2696C16.1115 15.9085 15.0995 15.7448 14.0858 15.7887Z" fill="url(#paint5_linear_31_272)"/>
</g>
<defs>
<linearGradient id="paint0_linear_31_272" x1="7.19819" y1="12.5488" x2="7.19819" y2="21.171" gradientUnits="userSpaceOnUse">
<stop stop-color="#0D9488"/>
<stop offset="1"/>
</linearGradient>
<linearGradient id="paint1_linear_31_272" x1="20.7551" y1="12.5254" x2="20.7551" y2="21.1787" gradientUnits="userSpaceOnUse">
<stop stop-color="#0D9488"/>
<stop offset="1"/>
</linearGradient>
<linearGradient id="paint2_linear_31_272" x1="8.37204" y1="4.70557" x2="8.37204" y2="11.0678" gradientUnits="userSpaceOnUse">
<stop stop-color="#0D9488"/>
<stop offset="1"/>
</linearGradient>
<linearGradient id="paint3_linear_31_272" x1="19.6552" y1="4.67139" x2="19.6552" y2="11.0291" gradientUnits="userSpaceOnUse">
<stop stop-color="#0D9488"/>
<stop offset="1"/>
</linearGradient>
<linearGradient id="paint4_linear_31_272" x1="13.899" y1="6.98438" x2="13.899" y2="13.9377" gradientUnits="userSpaceOnUse">
<stop stop-color="#0D9488"/>
<stop offset="1"/>
</linearGradient>
<linearGradient id="paint5_linear_31_272" x1="14.0741" y1="15.7817" x2="14.0741" y2="24.2278" gradientUnits="userSpaceOnUse">
<stop stop-color="#0D9488"/>
<stop offset="1"/>
</linearGradient>
<clipPath id="clip0_31_272">
<rect width="28" height="28" fill="white"/>
</clipPath>
</defs>
</svg>
