<svg width="77" height="28" viewBox="0 0 77 28" fill="none" xmlns="http://www.w3.org/2000/svg">
<path d="M4.848 15.16C4.19733 15.16 3.60533 15.048 3.072 14.824C2.54933 14.5893 2.096 14.2693 1.712 13.864C1.328 13.4587 1.02933 12.9947 0.816 12.472C0.613333 11.9493 0.512 11.3947 0.512 10.808C0.512 10.0187 0.688 9.29867 1.04 8.648C1.40267 7.99733 1.904 7.47467 2.544 7.08C3.19467 6.68533 3.96267 6.488 4.848 6.488C5.70133 6.488 6.44267 6.68 7.072 7.064C7.712 7.43733 8.18133 7.93867 8.48 8.568L6.768 9.112C6.576 8.76 6.304 8.488 5.952 8.296C5.61067 8.09333 5.232 7.992 4.816 7.992C4.34667 7.992 3.92 8.11467 3.536 8.36C3.16267 8.59467 2.864 8.92533 2.64 9.352C2.42667 9.768 2.32 10.2533 2.32 10.808C2.32 11.3413 2.432 11.8267 2.656 12.264C2.88 12.6907 3.17867 13.032 3.552 13.288C3.936 13.5333 4.36267 13.656 4.832 13.656C5.12 13.656 5.39733 13.608 5.664 13.512C5.94133 13.4053 6.18133 13.2667 6.384 13.096C6.58667 12.9147 6.73067 12.7173 6.816 12.504L8.544 13.016C8.36267 13.432 8.09067 13.8 7.728 14.12C7.376 14.44 6.95467 14.696 6.464 14.888C5.984 15.0693 5.44533 15.16 4.848 15.16ZM13.6754 15.16C13.014 15.16 12.422 15.048 11.8994 14.824C11.3767 14.5893 10.9234 14.2693 10.5394 13.864C10.166 13.4587 9.87804 13 9.67538 12.488C9.47271 11.9653 9.37138 11.4107 9.37138 10.824C9.37138 10.2373 9.47271 9.68267 9.67538 9.16C9.87804 8.63733 10.166 8.17867 10.5394 7.784C10.9234 7.37867 11.3767 7.064 11.8994 6.84C12.4327 6.60533 13.0247 6.488 13.6754 6.488C14.326 6.488 14.9127 6.60533 15.4354 6.84C15.9687 7.064 16.422 7.37867 16.7954 7.784C17.1794 8.17867 17.4727 8.63733 17.6754 9.16C17.878 9.68267 17.9794 10.2373 17.9794 10.824C17.9794 11.4107 17.878 11.9653 17.6754 12.488C17.4727 13 17.1794 13.4587 16.7954 13.864C16.422 14.2693 15.9687 14.5893 15.4354 14.824C14.9127 15.048 14.326 15.16 13.6754 15.16ZM11.1794 10.84C11.1794 11.3733 11.2914 11.8533 11.5154 12.28C11.7394 12.7067 12.038 13.0427 12.4114 13.288C12.7847 13.5333 13.206 13.656 13.6754 13.656C14.134 13.656 14.55 13.5333 14.9234 13.288C15.3074 13.032 15.6114 12.6907 15.8354 12.264C16.0594 11.8267 16.1714 11.3467 16.1714 10.824C16.1714 10.2907 16.0594 9.81067 15.8354 9.384C15.6114 8.95733 15.3074 8.62133 14.9234 8.376C14.55 8.12 14.134 7.992 13.6754 7.992C13.206 7.992 12.7847 8.12 12.4114 8.376C12.038 8.632 11.7394 8.97333 11.5154 9.4C11.2914 9.816 11.1794 10.296 11.1794 10.84ZM19.0124 10.824C19.0124 10.024 19.1724 9.29867 19.4924 8.648C19.823 7.98667 20.271 7.464 20.8364 7.08C21.4017 6.68533 22.0524 6.488 22.7884 6.488C23.4284 6.488 24.0044 6.65333 24.5164 6.984C25.039 7.31467 25.4444 7.72533 25.7324 8.216V3.32H27.4924V13.016C27.4924 13.2187 27.5297 13.3627 27.6044 13.448C27.679 13.5333 27.8017 13.5813 27.9724 13.592V15C27.6417 15.0533 27.3857 15.08 27.2044 15.08C26.8737 15.08 26.591 14.984 26.3564 14.792C26.1324 14.6 26.015 14.3707 26.0044 14.104L25.9884 13.48C25.6684 14.0133 25.2364 14.4293 24.6924 14.728C24.1484 15.016 23.583 15.16 22.9964 15.16C22.4204 15.16 21.887 15.048 21.3964 14.824C20.9164 14.6 20.495 14.2853 20.1324 13.88C19.7804 13.4747 19.503 13.0107 19.3004 12.488C19.1084 11.9653 19.0124 11.4107 19.0124 10.824ZM25.7324 11.992V9.8C25.615 9.45867 25.423 9.15467 25.1564 8.888C24.9004 8.61067 24.607 8.392 24.2764 8.232C23.9564 8.072 23.6364 7.992 23.3164 7.992C22.943 7.992 22.6017 8.072 22.2924 8.232C21.9937 8.392 21.7324 8.60533 21.5084 8.872C21.295 9.13867 21.1297 9.44267 21.0124 9.784C20.895 10.1253 20.8364 10.4827 20.8364 10.856C20.8364 11.24 20.9004 11.6027 21.0284 11.944C21.1564 12.2747 21.3377 12.5733 21.5724 12.84C21.8177 13.096 22.095 13.2987 22.4044 13.448C22.7244 13.5867 23.071 13.656 23.4444 13.656C23.679 13.656 23.9137 13.6133 24.1484 13.528C24.3937 13.4427 24.623 13.3253 24.8364 13.176C25.0604 13.0267 25.247 12.8507 25.3964 12.648C25.5564 12.4453 25.6684 12.2267 25.7324 11.992ZM33.5199 15.16C32.8692 15.16 32.2772 15.048 31.7439 14.824C31.2212 14.5893 30.7679 14.2747 30.3839 13.88C29.9999 13.4747 29.7012 13.016 29.4879 12.504C29.2852 11.9813 29.1839 11.4267 29.1839 10.84C29.1839 10.0507 29.3652 9.33067 29.7279 8.68C30.0905 8.01867 30.5972 7.49067 31.2479 7.096C31.8985 6.69067 32.6612 6.488 33.5359 6.488C34.4105 6.488 35.1625 6.69067 35.7919 7.096C36.4319 7.49067 36.9279 8.01333 37.2799 8.664C37.6319 9.31467 37.8079 10.0133 37.8079 10.76C37.8079 10.888 37.8025 11.0107 37.7919 11.128C37.7812 11.2347 37.7705 11.3253 37.7599 11.4H31.0559C31.0879 11.8907 31.2212 12.3227 31.4559 12.696C31.7012 13.0587 32.0105 13.3467 32.3839 13.56C32.7572 13.7627 33.1572 13.864 33.5839 13.864C34.0532 13.864 34.4959 13.7467 34.9119 13.512C35.3385 13.2773 35.6265 12.968 35.7759 12.584L37.2799 13.016C37.0985 13.4213 36.8212 13.7893 36.4479 14.12C36.0852 14.44 35.6532 14.696 35.1519 14.888C34.6505 15.0693 34.1065 15.16 33.5199 15.16ZM31.0079 10.232H36.0639C36.0319 9.752 35.8932 9.33067 35.6479 8.968C35.4132 8.59467 35.1092 8.30667 34.7359 8.104C34.3732 7.89067 33.9679 7.784 33.5199 7.784C33.0825 7.784 32.6772 7.89067 32.3039 8.104C31.9412 8.30667 31.6425 8.59467 31.4079 8.968C31.1732 9.33067 31.0399 9.752 31.0079 10.232ZM39.2595 3.32H41.0195V12.584C41.0195 13.0107 41.0835 13.2827 41.2115 13.4C41.3395 13.5173 41.4995 13.576 41.6915 13.576C41.9048 13.576 42.1022 13.5547 42.2835 13.512C42.4755 13.4693 42.6408 13.416 42.7795 13.352L43.0355 14.744C42.7795 14.8507 42.4755 14.9413 42.1235 15.016C41.7715 15.0907 41.4568 15.128 41.1795 15.128C40.5822 15.128 40.1128 14.9627 39.7715 14.632C39.4302 14.2907 39.2595 13.8213 39.2595 13.224V3.32ZM43.448 12.552C43.448 12.0187 43.5973 11.5547 43.896 11.16C44.2053 10.7547 44.6267 10.4453 45.16 10.232C45.6933 10.008 46.312 9.896 47.016 9.896C47.3893 9.896 47.768 9.92267 48.152 9.976C48.5467 10.0293 48.8933 10.1147 49.192 10.232V9.704C49.192 9.11733 49.016 8.65867 48.664 8.328C48.312 7.99733 47.8053 7.832 47.144 7.832C46.6747 7.832 46.232 7.91733 45.816 8.088C45.4 8.248 44.9573 8.47733 44.488 8.776L43.896 7.592C44.4507 7.21867 45.0053 6.94133 45.56 6.76C46.1253 6.57867 46.7173 6.488 47.336 6.488C48.456 6.488 49.336 6.78667 49.976 7.384C50.6267 7.97067 50.952 8.808 50.952 9.896V13.016C50.952 13.2187 50.984 13.3627 51.048 13.448C51.1227 13.5333 51.2453 13.5813 51.416 13.592V15C51.256 15.032 51.112 15.0533 50.984 15.064C50.856 15.0747 50.7493 15.08 50.664 15.08C50.2907 15.08 50.008 14.9893 49.816 14.808C49.624 14.6267 49.512 14.4133 49.48 14.168L49.432 13.688C49.0693 14.1573 48.6053 14.52 48.04 14.776C47.4747 15.032 46.904 15.16 46.328 15.16C45.7733 15.16 45.2773 15.048 44.84 14.824C44.4027 14.5893 44.0613 14.2747 43.816 13.88C43.5707 13.4853 43.448 13.0427 43.448 12.552ZM48.776 13.064C48.904 12.9253 49.0053 12.7867 49.08 12.648C49.1547 12.5093 49.192 12.3867 49.192 12.28V11.32C48.8933 11.2027 48.5787 11.1173 48.248 11.064C47.9173 11 47.592 10.968 47.272 10.968C46.632 10.968 46.1093 11.096 45.704 11.352C45.3093 11.608 45.112 11.96 45.112 12.408C45.112 12.6533 45.176 12.888 45.304 13.112C45.4427 13.336 45.6347 13.5173 45.88 13.656C46.136 13.7947 46.4507 13.864 46.824 13.864C47.208 13.864 47.576 13.7893 47.928 13.64C48.28 13.4907 48.5627 13.2987 48.776 13.064ZM53.0784 16.968C53.2384 16.9893 53.393 17.0107 53.5424 17.032C53.7024 17.064 53.8304 17.08 53.9264 17.08C54.1077 17.08 54.2624 17.0213 54.3904 16.904C54.529 16.7973 54.6677 16.5947 54.8064 16.296C54.945 15.9973 55.1157 15.5653 55.3184 15L51.8784 6.632H53.7184L56.2784 13.208L58.5504 6.632H60.2464L56.4544 16.936C56.337 17.2453 56.1664 17.528 55.9424 17.784C55.7184 18.0507 55.441 18.2587 55.1104 18.408C54.7797 18.5573 54.3904 18.632 53.9424 18.632C53.8144 18.632 53.681 18.6213 53.5424 18.6C53.4037 18.5787 53.249 18.5467 53.0784 18.504V16.968ZM65.0511 15.16C64.4005 15.16 63.8085 15.048 63.2751 14.824C62.7525 14.5893 62.2991 14.2747 61.9151 13.88C61.5311 13.4747 61.2325 13.016 61.0191 12.504C60.8165 11.9813 60.7151 11.4267 60.7151 10.84C60.7151 10.0507 60.8965 9.33067 61.2591 8.68C61.6218 8.01867 62.1285 7.49067 62.7791 7.096C63.4298 6.69067 64.1925 6.488 65.0671 6.488C65.9418 6.488 66.6938 6.69067 67.3231 7.096C67.9631 7.49067 68.4591 8.01333 68.8111 8.664C69.1631 9.31467 69.3391 10.0133 69.3391 10.76C69.3391 10.888 69.3338 11.0107 69.3231 11.128C69.3125 11.2347 69.3018 11.3253 69.2911 11.4H62.5871C62.6191 11.8907 62.7525 12.3227 62.9871 12.696C63.2325 13.0587 63.5418 13.3467 63.9151 13.56C64.2885 13.7627 64.6885 13.864 65.1151 13.864C65.5845 13.864 66.0271 13.7467 66.4431 13.512C66.8698 13.2773 67.1578 12.968 67.3071 12.584L68.8111 13.016C68.6298 13.4213 68.3525 13.7893 67.9791 14.12C67.6165 14.44 67.1845 14.696 66.6831 14.888C66.1818 15.0693 65.6378 15.16 65.0511 15.16ZM62.5391 10.232H67.5951C67.5631 9.752 67.4245 9.33067 67.1791 8.968C66.9445 8.59467 66.6405 8.30667 66.2671 8.104C65.9045 7.89067 65.4991 7.784 65.0511 7.784C64.6138 7.784 64.2085 7.89067 63.8351 8.104C63.4725 8.30667 63.1738 8.59467 62.9391 8.968C62.7045 9.33067 62.5711 9.752 62.5391 10.232ZM75.4788 8.152C74.7961 8.16267 74.1881 8.31733 73.6548 8.616C73.1321 8.91467 72.7588 9.336 72.5348 9.88V15H70.7747V6.632H72.4068V8.504C72.6948 7.928 73.0734 7.46933 73.5428 7.128C74.0121 6.776 74.5081 6.584 75.0308 6.552C75.1374 6.552 75.2228 6.552 75.2868 6.552C75.3614 6.552 75.4254 6.55733 75.4788 6.568V8.152Z" fill="white"/>
<path d="M12.701 20.816H10.677V26H10.117V20.816H8.09303V20.32H12.701V20.816ZM17.3678 25.504V26H13.5518V20.32H17.2958V20.816H14.1118V22.864H16.8878V23.336H14.1118V25.504H17.3678ZM17.9415 23.12C17.9415 22.7733 18.0001 22.4347 18.1175 22.104C18.2401 21.768 18.4161 21.464 18.6455 21.192C18.8748 20.9147 19.1575 20.696 19.4935 20.536C19.8295 20.3707 20.2108 20.288 20.6375 20.288C21.1441 20.288 21.5761 20.4053 21.9335 20.64C22.2961 20.8693 22.5628 21.1653 22.7335 21.528L22.2935 21.8C22.1708 21.5493 22.0161 21.352 21.8295 21.208C21.6428 21.0587 21.4428 20.952 21.2295 20.888C21.0215 20.824 20.8135 20.792 20.6055 20.792C20.2641 20.792 19.9628 20.8613 19.7015 21C19.4401 21.1333 19.2188 21.3147 19.0375 21.544C18.8615 21.768 18.7281 22.0213 18.6375 22.304C18.5468 22.5813 18.5015 22.864 18.5015 23.152C18.5015 23.4667 18.5548 23.768 18.6615 24.056C18.7681 24.344 18.9175 24.6 19.1095 24.824C19.3015 25.0427 19.5255 25.2187 19.7815 25.352C20.0428 25.48 20.3255 25.544 20.6295 25.544C20.8428 25.544 21.0615 25.5067 21.2855 25.432C21.5095 25.3573 21.7175 25.2427 21.9095 25.088C22.1068 24.9333 22.2641 24.7333 22.3815 24.488L22.8455 24.728C22.7281 25.0107 22.5468 25.2507 22.3015 25.448C22.0561 25.6453 21.7815 25.7947 21.4775 25.896C21.1788 25.9973 20.8855 26.048 20.5975 26.048C20.2081 26.048 19.8508 25.9653 19.5255 25.8C19.2001 25.6293 18.9175 25.4053 18.6775 25.128C18.4428 24.8453 18.2615 24.5307 18.1335 24.184C18.0055 23.832 17.9415 23.4773 17.9415 23.12ZM28.2818 20.32V26H27.7298V23.344H24.3618V26H23.8018V20.32H24.3618V22.848H27.7298V20.32H28.2818ZM30.2681 21.352V26H29.7081V20.32H30.1721L33.9001 25.056V20.328H34.4601V26H33.9401L30.2681 21.352ZM38.1758 26.04C37.7758 26.04 37.4131 25.96 37.0878 25.8C36.7624 25.64 36.4824 25.424 36.2478 25.152C36.0131 24.8747 35.8318 24.5653 35.7038 24.224C35.5758 23.8773 35.5118 23.5227 35.5118 23.16C35.5118 22.7813 35.5784 22.4213 35.7118 22.08C35.8451 21.7333 36.0318 21.4267 36.2718 21.16C36.5171 20.888 36.8024 20.6747 37.1278 20.52C37.4531 20.36 37.8051 20.28 38.1838 20.28C38.5838 20.28 38.9464 20.3627 39.2718 20.528C39.5971 20.6933 39.8744 20.9147 40.1038 21.192C40.3384 21.4693 40.5198 21.7787 40.6478 22.12C40.7758 22.4613 40.8398 22.8107 40.8398 23.168C40.8398 23.5467 40.7731 23.9093 40.6398 24.256C40.5064 24.5973 40.3198 24.904 40.0798 25.176C39.8398 25.4427 39.5571 25.6533 39.2318 25.808C38.9064 25.9627 38.5544 26.04 38.1758 26.04ZM36.0718 23.16C36.0718 23.4693 36.1224 23.768 36.2238 24.056C36.3251 24.3387 36.4691 24.592 36.6558 24.816C36.8424 25.0347 37.0638 25.2107 37.3198 25.344C37.5811 25.472 37.8664 25.536 38.1758 25.536C38.5011 25.536 38.7918 25.4693 39.0478 25.336C39.3091 25.1973 39.5304 25.016 39.7118 24.792C39.8984 24.5627 40.0398 24.3067 40.1358 24.024C40.2318 23.7413 40.2798 23.4533 40.2798 23.16C40.2798 22.8507 40.2291 22.5547 40.1278 22.272C40.0264 21.9893 39.8798 21.736 39.6878 21.512C39.5011 21.288 39.2798 21.112 39.0238 20.984C38.7678 20.856 38.4851 20.792 38.1758 20.792C37.8558 20.792 37.5651 20.8587 37.3038 20.992C37.0478 21.1253 36.8264 21.3067 36.6398 21.536C36.4584 21.76 36.3171 22.0133 36.2158 22.296C36.1198 22.5787 36.0718 22.8667 36.0718 23.16ZM41.8956 26V20.32H42.4556V25.504H45.7356V26H41.8956ZM48.6211 26.04C48.2211 26.04 47.8584 25.96 47.5331 25.8C47.2078 25.64 46.9278 25.424 46.6931 25.152C46.4584 24.8747 46.2771 24.5653 46.1491 24.224C46.0211 23.8773 45.9571 23.5227 45.9571 23.16C45.9571 22.7813 46.0238 22.4213 46.1571 22.08C46.2904 21.7333 46.4771 21.4267 46.7171 21.16C46.9624 20.888 47.2478 20.6747 47.5731 20.52C47.8984 20.36 48.2504 20.28 48.6291 20.28C49.0291 20.28 49.3918 20.3627 49.7171 20.528C50.0424 20.6933 50.3198 20.9147 50.5491 21.192C50.7838 21.4693 50.9651 21.7787 51.0931 22.12C51.2211 22.4613 51.2851 22.8107 51.2851 23.168C51.2851 23.5467 51.2184 23.9093 51.0851 24.256C50.9518 24.5973 50.7651 24.904 50.5251 25.176C50.2851 25.4427 50.0024 25.6533 49.6771 25.808C49.3518 25.9627 48.9998 26.04 48.6211 26.04ZM46.5171 23.16C46.5171 23.4693 46.5678 23.768 46.6691 24.056C46.7704 24.3387 46.9144 24.592 47.1011 24.816C47.2878 25.0347 47.5091 25.2107 47.7651 25.344C48.0264 25.472 48.3118 25.536 48.6211 25.536C48.9464 25.536 49.2371 25.4693 49.4931 25.336C49.7544 25.1973 49.9758 25.016 50.1571 24.792C50.3438 24.5627 50.4851 24.3067 50.5811 24.024C50.6771 23.7413 50.7251 23.4533 50.7251 23.16C50.7251 22.8507 50.6744 22.5547 50.5731 22.272C50.4718 21.9893 50.3251 21.736 50.1331 21.512C49.9464 21.288 49.7251 21.112 49.4691 20.984C49.2131 20.856 48.9304 20.792 48.6211 20.792C48.3011 20.792 48.0104 20.8587 47.7491 20.992C47.4931 21.1253 47.2718 21.3067 47.0851 21.536C46.9038 21.76 46.7624 22.0133 46.6611 22.296C46.5651 22.5787 46.5171 22.8667 46.5171 23.16ZM54.6209 26.04C54.2422 26.04 53.8902 25.96 53.5649 25.8C53.2396 25.6347 52.9569 25.4133 52.7169 25.136C52.4769 24.8587 52.2902 24.5493 52.1569 24.208C52.0289 23.8667 51.9649 23.5147 51.9649 23.152C51.9649 22.768 52.0289 22.4053 52.1569 22.064C52.2902 21.7173 52.4742 21.4107 52.7089 21.144C52.9436 20.8773 53.2209 20.6667 53.5409 20.512C53.8609 20.3573 54.2102 20.28 54.5889 20.28C55.1489 20.28 55.6049 20.3947 55.9569 20.624C56.3089 20.8533 56.5756 21.152 56.7569 21.52L56.3249 21.808C56.1436 21.456 55.9009 21.1973 55.5969 21.032C55.2929 20.8667 54.9542 20.784 54.5809 20.784C54.2662 20.784 53.9809 20.8507 53.7249 20.984C53.4742 21.1173 53.2582 21.296 53.0769 21.52C52.8956 21.744 52.7569 21.9973 52.6609 22.28C52.5702 22.5627 52.5249 22.856 52.5249 23.16C52.5249 23.48 52.5782 23.784 52.6849 24.072C52.7916 24.3547 52.9436 24.608 53.1409 24.832C53.3382 25.0507 53.5649 25.224 53.8209 25.352C54.0822 25.4747 54.3622 25.536 54.6609 25.536C55.0076 25.536 55.3356 25.4507 55.6449 25.28C55.9542 25.104 56.2502 24.8347 56.5329 24.472V25.064C55.9942 25.7147 55.3569 26.04 54.6209 26.04ZM56.4449 23.64H55.1809V23.208H56.9169V26H56.4449V23.64ZM58.0675 26V20.32H58.6275V26H58.0675ZM63.8678 25.504V26H60.0518V20.32H63.7958V20.816H60.6118V22.864H63.3878V23.336H60.6118V25.504H63.8678ZM68.2156 21.384C68.1356 21.2933 68.0423 21.2133 67.9356 21.144C67.8289 21.0693 67.7089 21.0053 67.5756 20.952C67.4423 20.8987 67.2983 20.856 67.1436 20.824C66.9943 20.792 66.8343 20.776 66.6636 20.776C66.1676 20.776 65.8023 20.872 65.5676 21.064C65.3383 21.2507 65.2236 21.5067 65.2236 21.832C65.2236 22.056 65.2769 22.232 65.3836 22.36C65.4956 22.488 65.6689 22.592 65.9036 22.672C66.1383 22.752 66.4369 22.8347 66.7996 22.92C67.2049 23.0053 67.5543 23.1067 67.8476 23.224C68.1409 23.3413 68.3676 23.5013 68.5276 23.704C68.6876 23.9013 68.7676 24.1707 68.7676 24.512C68.7676 24.7733 68.7169 25 68.6156 25.192C68.5143 25.384 68.3729 25.544 68.1916 25.672C68.0103 25.8 67.7943 25.896 67.5436 25.96C67.2929 26.0187 67.0183 26.048 66.7196 26.048C66.4263 26.048 66.1436 26.0187 65.8716 25.96C65.6049 25.896 65.3516 25.8053 65.1116 25.688C64.8716 25.5653 64.6476 25.4107 64.4396 25.224L64.7196 24.768C64.8209 24.8747 64.9409 24.976 65.0796 25.072C65.2236 25.1627 65.3809 25.2453 65.5516 25.32C65.7276 25.3947 65.9143 25.4533 66.1116 25.496C66.3143 25.5333 66.5223 25.552 66.7356 25.552C67.1889 25.552 67.5409 25.4693 67.7916 25.304C68.0476 25.1387 68.1756 24.8933 68.1756 24.568C68.1756 24.3333 68.1116 24.1467 67.9836 24.008C67.8556 23.864 67.6636 23.7467 67.4076 23.656C67.1516 23.5653 66.8369 23.4773 66.4636 23.392C66.0689 23.3013 65.7356 23.2 65.4636 23.088C65.1916 22.976 64.9863 22.8293 64.8476 22.648C64.7143 22.4613 64.6476 22.216 64.6476 21.912C64.6476 21.56 64.7329 21.264 64.9036 21.024C65.0796 20.7787 65.3196 20.5947 65.6236 20.472C65.9276 20.344 66.2769 20.28 66.6716 20.28C66.9223 20.28 67.1543 20.3067 67.3676 20.36C67.5863 20.408 67.7863 20.48 67.9676 20.576C68.1543 20.672 68.3276 20.792 68.4876 20.936L68.2156 21.384Z" fill="white"/>
</svg>
