<svg width="28" height="28" viewBox="0 0 28 28" fill="none" xmlns="http://www.w3.org/2000/svg">
<path d="M11.3358 3.21572C11.467 2.56822 12.0401 2.1001 12.7051 2.1001H15.3214C15.9864 2.1001 16.5595 2.56822 16.6908 3.21572L17.3251 6.27822C17.942 6.54072 18.5195 6.8776 19.0445 7.27572L22.0108 6.29135C22.6408 6.08135 23.332 6.34385 23.6645 6.92135L24.9726 9.1876C25.3051 9.7651 25.187 10.4913 24.6883 10.9332L22.3564 13.007C22.3958 13.3307 22.4133 13.6632 22.4133 14.0001C22.4133 14.337 22.3914 14.6695 22.3564 14.9932L24.6926 17.0713C25.1914 17.5132 25.3051 18.2438 24.977 18.817L23.6689 21.0832C23.3364 21.6563 22.6451 21.9232 22.0151 21.7132L19.0489 20.7288C18.5195 21.127 17.942 21.4595 17.3295 21.7263L16.6995 24.7845C16.5639 25.4363 15.9908 25.9001 15.3301 25.9001H12.7139C12.0489 25.9001 11.4758 25.432 11.3445 24.7845L10.7145 21.7263C10.0976 21.4638 9.52452 21.127 8.99514 20.7288L6.01577 21.7132C5.38577 21.9232 4.69452 21.6607 4.36202 21.0832L3.05389 18.817C2.72139 18.2395 2.83952 17.5132 3.33827 17.0713L5.67452 14.9932C5.63514 14.6695 5.61764 14.337 5.61764 14.0001C5.61764 13.6632 5.63952 13.3307 5.67452 13.007L3.33827 10.9288C2.83952 10.487 2.72577 9.75635 3.05389 9.18322L4.36202 6.91697C4.69452 6.33947 5.38577 6.07697 6.01577 6.28697L8.98202 7.27135C9.51139 6.87322 10.0889 6.54072 10.7014 6.27385L11.3358 3.21572ZM14.0133 17.5001C15.947 17.4913 17.5089 15.9207 17.5001 13.987C17.4914 12.0532 15.9208 10.4913 13.987 10.5001C12.0533 10.5088 10.4914 12.0795 10.5001 14.0132C10.5089 15.947 12.0795 17.5088 14.0133 17.5001Z" fill="url(#paint0_linear_31_272)"/>
<defs>
<linearGradient id="paint0_linear_31_272" x1="14.0145" y1="2.1001" x2="14.0145" y2="25.9001" gradientUnits="userSpaceOnUse">
<stop stop-color="#9A5187"/>
<stop offset="1" stop-color="#125F7B"/>
</linearGradient>
</defs>
</svg>
