<svg width="28" height="28" viewBox="0 0 28 28" fill="none" xmlns="http://www.w3.org/2000/svg">
<path d="M9.43367 21.7129L16.429 5.37494C16.5466 5.10205 16.7638 4.88431 17.0365 4.76615C17.3091 4.64798 17.6166 4.63829 17.8961 4.73906C18.1756 4.83983 18.4062 5.04346 18.5407 5.3084C18.6752 5.57334 18.7036 5.87963 18.62 6.16477L18.5733 6.29311L11.578 22.6311C11.4604 22.904 11.2432 23.1217 10.9705 23.2399C10.6979 23.3581 10.3904 23.3678 10.1109 23.267C9.83138 23.1662 9.60083 22.9626 9.4663 22.6976C9.33178 22.4327 9.30341 22.1264 9.387 21.8413L9.43367 21.7129ZM2.67517 13.1753L7.34183 8.50861C7.55179 8.29937 7.83351 8.17789 8.12978 8.16884C8.42606 8.15979 8.71467 8.26386 8.93699 8.4599C9.15932 8.65594 9.29869 8.92925 9.3268 9.22433C9.35491 9.5194 9.26965 9.81412 9.08833 10.0486L8.9915 10.1583L5.14967 14.0001L8.9915 17.8419C9.20296 18.0514 9.32637 18.3338 9.33646 18.6312C9.34656 18.9287 9.24257 19.2188 9.04579 19.4421C8.84901 19.6654 8.57432 19.8051 8.27794 19.8325C7.98156 19.8599 7.68591 19.773 7.4515 19.5896L7.34183 19.4916L2.67517 14.8249C2.47429 14.624 2.35363 14.3568 2.3358 14.0732C2.31797 13.7897 2.40421 13.5094 2.57833 13.2849L2.67517 13.1753ZM19.0085 8.50744C19.2094 8.30657 19.4767 8.1859 19.7602 8.16807C20.0437 8.15024 20.324 8.23648 20.5485 8.41061L20.657 8.50744L25.3248 13.1753C25.5257 13.3762 25.6464 13.6434 25.6642 13.927C25.682 14.2105 25.5958 14.4908 25.4217 14.7153L25.3248 14.8261L20.657 19.4869C20.447 19.6962 20.1653 19.8177 19.8691 19.8267C19.5728 19.8358 19.2842 19.7317 19.0618 19.5356C18.8395 19.3396 18.7001 19.0663 18.672 18.7712C18.6439 18.4761 18.7292 18.1814 18.9105 17.9469L19.0085 17.8361L22.8492 14.0001L19.0073 10.1571C18.7886 9.93833 18.6657 9.64163 18.6657 9.33227C18.6657 9.02292 18.7898 8.72622 19.0085 8.50744Z" fill="url(#paint0_linear_31_272)"/>
<defs>
<linearGradient id="paint0_linear_31_272" x1="14" y1="4.66992" x2="14" y2="23.3361" gradientUnits="userSpaceOnUse">
<stop stop-color="#9A5187"/>
<stop offset="1" stop-color="#125F7B"/>
</linearGradient>
</defs>
</svg>
