<svg width="28" height="28" viewBox="0 0 28 28" fill="none" xmlns="http://www.w3.org/2000/svg">
<path d="M16.0415 2.3335H11.9582C11.3125 2.33352 10.6895 2.5715 10.2082 3.00196C9.72697 3.43242 9.42125 4.02515 9.3495 4.66683H7.2915C6.59531 4.66683 5.92763 4.94339 5.43535 5.43567C4.94307 5.92796 4.6665 6.59564 4.6665 7.29183V23.0418C4.6665 23.738 4.94307 24.4057 5.43535 24.898C5.92763 25.3903 6.59531 25.6668 7.2915 25.6668H20.7082C21.0529 25.6668 21.3942 25.5989 21.7127 25.467C22.0312 25.3351 22.3206 25.1417 22.5643 24.898C22.8081 24.6542 23.0014 24.3649 23.1334 24.0464C23.2653 23.7279 23.3332 23.3865 23.3332 23.0418V7.29183C23.3332 6.94711 23.2653 6.60576 23.1334 6.28729C23.0014 5.96881 22.8081 5.67943 22.5643 5.43567C22.3206 5.19192 22.0312 4.99856 21.7127 4.86665C21.3942 4.73473 21.0529 4.66683 20.7082 4.66683H18.6502C18.5784 4.02515 18.2727 3.43242 17.7915 3.00196C17.3102 2.5715 16.6872 2.33352 16.0415 2.3335ZM11.9582 4.0835H16.0415C16.2736 4.0835 16.4961 4.17568 16.6602 4.33978C16.8243 4.50387 16.9165 4.72643 16.9165 4.9585C16.9165 5.19056 16.8243 5.41312 16.6602 5.57721C16.4961 5.74131 16.2736 5.8335 16.0415 5.8335H11.9582C11.7261 5.8335 11.5035 5.74131 11.3395 5.57721C11.1754 5.41312 11.0832 5.19056 11.0832 4.9585C11.0832 4.72643 11.1754 4.50387 11.3395 4.33978C11.5035 4.17568 11.7261 4.0835 11.9582 4.0835ZM19.8682 12.8685L13.4515 19.2852C13.2874 19.449 13.065 19.5411 12.8332 19.5411C12.6013 19.5411 12.3789 19.449 12.2148 19.2852L9.29817 16.3685C9.2122 16.2884 9.14325 16.1918 9.09543 16.0845C9.0476 15.9771 9.02189 15.8613 9.01981 15.7438C9.01774 15.6263 9.03935 15.5096 9.08336 15.4006C9.12737 15.2917 9.19287 15.1927 9.27596 15.1096C9.35905 15.0265 9.45802 14.961 9.56697 14.917C9.67593 14.873 9.79263 14.8514 9.91011 14.8535C10.0276 14.8555 10.1435 14.8813 10.2508 14.9291C10.3581 14.9769 10.4547 15.0459 10.5348 15.1318L12.8332 17.4302L18.6315 11.6318C18.7116 11.5459 18.8082 11.4769 18.9155 11.4291C19.0229 11.3813 19.1387 11.3555 19.2562 11.3535C19.3737 11.3514 19.4904 11.373 19.5994 11.417C19.7083 11.461 19.8073 11.5265 19.8904 11.6096C19.9735 11.6927 20.039 11.7917 20.083 11.9006C20.127 12.0096 20.1486 12.1263 20.1465 12.2438C20.1445 12.3613 20.1187 12.4771 20.0709 12.5845C20.0231 12.6918 19.9541 12.7884 19.8682 12.8685Z" fill="url(#paint0_linear_31_272)"/>
<defs>
<linearGradient id="paint0_linear_31_272" x1="13.9998" y1="2.3335" x2="13.9998" y2="25.6668" gradientUnits="userSpaceOnUse">
<stop stop-color="#0D9488"/>
<stop offset="1"/>
</linearGradient>
</defs>
</svg>
