<svg width="28" height="28" viewBox="0 0 28 28" fill="none" xmlns="http://www.w3.org/2000/svg">
<path d="M24.5 12.25H26.25V28H24.5V12.25ZM7 18.375L8.75 16.625V28H7V18.375ZM3.5 21.875L5.25 20.125V28H3.5V21.875ZM10.5 14.875L12.25 13.125V28H10.5V14.875ZM14 13.125L15.75 14.875V27.9863H14V13.125ZM18.375 17.5L19.25 16.625V28H17.5V16.625L18.375 17.5ZM21 14.875L22.75 13.125V28H21V14.875ZM0 25.375L1.75 23.625V28H0V25.375ZM28 3.5V10.5H26.25V6.49414L18.375 14.3555L13.125 9.10547L0 22.2441V19.7559L13.125 6.64453L18.375 11.8945L25.0059 5.25H21V3.5H28Z" fill="white"/>
</svg>
