<svg width="28" height="28" viewBox="0 0 28 28" fill="none" xmlns="http://www.w3.org/2000/svg">
<path d="M5.25 10.5455C5.25 5.6875 9.16825 1.75 14 1.75C18.8317 1.75 22.75 5.6875 22.75 10.5455V16.828C22.75 18.214 21.63 19.3392 20.2493 19.3392H17.7502C17.5857 19.3388 17.4229 19.3059 17.271 19.2425C17.1192 19.1791 16.9813 19.0865 16.8653 18.9698C16.7492 18.8531 16.6573 18.7147 16.5948 18.5625C16.5322 18.4103 16.5003 18.2473 16.5007 18.0828V13.0585C16.5007 12.3637 17.0607 11.802 17.7502 11.802H20.8757V10.5455C20.8757 6.72875 17.7957 3.633 14 3.633C10.2025 3.633 7.12425 6.72875 7.12425 10.5455V11.802H10.2497C10.941 11.802 11.4993 12.3637 11.4993 13.0585V18.0828C11.4993 18.7775 10.9392 19.3392 10.2497 19.3392H7.7525C7.5355 19.3392 7.32667 19.313 7.126 19.2605V19.6542C7.126 21.1505 8.28275 22.3755 9.7475 22.4735L9.94 22.4805H11.3488C11.5419 21.9311 11.9005 21.4551 12.3753 21.1179C12.8501 20.7807 13.4177 20.5989 14 20.5975C14.3704 20.5982 14.7371 20.6719 15.079 20.8145C15.4209 20.957 15.7314 21.1656 15.9926 21.4283C16.2538 21.691 16.4607 22.0026 16.6013 22.3453C16.7419 22.688 16.8136 23.0551 16.8123 23.4255C16.8123 24.9847 15.5523 26.25 14 26.25C12.775 26.25 11.7338 25.4625 11.347 24.3653H9.94C8.73671 24.3623 7.58042 23.8978 6.70945 23.0675C5.83849 22.2373 5.31925 21.1045 5.25875 19.9028L5.25 19.656V10.5455Z" fill="url(#paint0_linear_31_272)"/>
<defs>
<linearGradient id="paint0_linear_31_272" x1="14" y1="1.75" x2="14" y2="26.25" gradientUnits="userSpaceOnUse">
<stop stop-color="#0D9488"/>
<stop offset="1"/>
</linearGradient>
</defs>
</svg>
