<svg width="28" height="28" viewBox="0 0 28 28" fill="none" xmlns="http://www.w3.org/2000/svg">
<g clip-path="url(#clip0_31_272)">
<path d="M26.25 27.125H2.625C2.16087 27.125 1.71575 26.9406 1.38756 26.6124C1.05937 26.2842 0.875 25.8391 0.875 25.375V1.75C0.875 1.51794 0.967187 1.29538 1.13128 1.13128C1.29538 0.967187 1.51794 0.875 1.75 0.875C1.98206 0.875 2.20462 0.967187 2.36872 1.13128C2.53281 1.29538 2.625 1.51794 2.625 1.75V25.375H26.25C26.4821 25.375 26.7046 25.4672 26.8687 25.6313C27.0328 25.7954 27.125 26.0179 27.125 26.25C27.125 26.4821 27.0328 26.7046 26.8687 26.8687C26.7046 27.0328 26.4821 27.125 26.25 27.125Z" fill="url(#paint0_linear_31_272)"/>
<path d="M8.53125 23.625H6.34375C5.8216 23.625 5.32085 23.4176 4.95163 23.0484C4.58242 22.6792 4.375 22.1784 4.375 21.6562V13.3438C4.375 12.8216 4.58242 12.3208 4.95163 11.9516C5.32085 11.5824 5.8216 11.375 6.34375 11.375H8.53125C9.05339 11.375 9.55415 11.5824 9.92337 11.9516C10.2926 12.3208 10.5 12.8216 10.5 13.3438V21.6562C10.5 22.1784 10.2926 22.6792 9.92337 23.0484C9.55415 23.4176 9.05339 23.625 8.53125 23.625ZM16.4062 23.625H14.2187C13.6966 23.625 13.1958 23.4176 12.8266 23.0484C12.4574 22.6792 12.25 22.1784 12.25 21.6562V10.7188C12.25 10.1966 12.4574 9.69585 12.8266 9.32663C13.1958 8.95742 13.6966 8.75 14.2187 8.75H16.4062C16.9284 8.75 17.4292 8.95742 17.7984 9.32663C18.1676 9.69585 18.375 10.1966 18.375 10.7188V21.6562C18.375 22.1784 18.1676 22.6792 17.7984 23.0484C17.4292 23.4176 16.9284 23.625 16.4062 23.625ZM24.2616 23.625H22.0741C21.5519 23.625 21.0512 23.4176 20.6819 23.0484C20.3127 22.6792 20.1053 22.1784 20.1053 21.6562V7.21875C20.1053 6.69661 20.3127 6.19585 20.6819 5.82663C21.0512 5.45742 21.5519 5.25 22.0741 5.25H24.2616C24.7837 5.25 25.2845 5.45742 25.6537 5.82663C26.0229 6.19585 26.2303 6.69661 26.2303 7.21875V21.6562C26.2303 22.1784 26.0229 22.6792 25.6537 23.0484C25.2845 23.4176 24.7837 23.625 24.2616 23.625Z" fill="url(#paint1_linear_31_272)"/>
</g>
<defs>
<linearGradient id="paint0_linear_31_272" x1="14" y1="0.875" x2="14" y2="27.125" gradientUnits="userSpaceOnUse">
<stop stop-color="#125F7B"/>
<stop offset="1" stop-color="#9A5187"/>
</linearGradient>
<linearGradient id="paint1_linear_31_272" x1="15.3027" y1="5.25" x2="15.3027" y2="23.625" gradientUnits="userSpaceOnUse">
<stop stop-color="#125F7B"/>
<stop offset="1" stop-color="#9A5187"/>
</linearGradient>
<clipPath id="clip0_31_272">
<rect width="28" height="28" fill="white"/>
</clipPath>
</defs>
</svg>
