<svg width="28" height="28" viewBox="0 0 28 28" fill="none" xmlns="http://www.w3.org/2000/svg">
<path d="M8.16667 22.1668C5.25 22.1668 3.5 19.8335 3.5 17.5002C3.5 15.1668 5.25 12.8335 8.16667 12.8335C8.16667 8.75016 10.5 5.8335 14 5.8335C17.5 5.8335 19.8333 8.75016 19.8333 11.6668V12.8335C22.75 12.8335 24.5 15.1668 24.5 17.5002C24.5 19.8335 22.75 22.1668 19.8333 22.1668H8.16667Z" fill="url(#paint0_linear_31_272)" fill-opacity="0.61"/>
<path d="M9.33333 22.1668H8.16667C5.25 22.1668 3.5 19.8335 3.5 17.5002C3.5 15.1668 5.25 12.8335 8.16667 12.8335C9.33333 12.8335 9.91667 13.4168 9.91667 13.4168M18.6667 22.1668H19.8333C22.75 22.1668 24.5 19.8335 24.5 17.5002C24.5 15.1668 22.75 12.8335 19.8333 12.8335C18.6667 12.8335 18.0833 13.4168 18.0833 13.4168" stroke="url(#paint1_linear_31_272)" stroke-width="2.33333" stroke-linecap="round" stroke-linejoin="round"/>
<path d="M8.1665 12.8335V11.6668C8.1665 8.75016 10.4998 5.8335 13.9998 5.8335C17.4998 5.8335 19.8332 8.75016 19.8332 11.6668V12.8335" stroke="url(#paint2_linear_31_272)" stroke-width="2.33333" stroke-linecap="round" stroke-linejoin="round"/>
<path d="M14 23.3335V16.3335" stroke="url(#paint3_linear_31_272)" stroke-width="2.33333" stroke-linecap="round" stroke-linejoin="round"/>
<path d="M16.3332 17.5003L13.9998 15.167L11.6665 17.5003" stroke="url(#paint4_linear_31_272)" stroke-width="2.33333" stroke-linecap="round" stroke-linejoin="round"/>
<defs>
<linearGradient id="paint0_linear_31_272" x1="14" y1="5.8335" x2="14" y2="22.1668" gradientUnits="userSpaceOnUse">
<stop stop-color="#0D9488"/>
<stop offset="1"/>
</linearGradient>
<linearGradient id="paint1_linear_31_272" x1="14" y1="12.8335" x2="14" y2="22.1668" gradientUnits="userSpaceOnUse">
<stop stop-color="#0D9488"/>
<stop offset="1"/>
</linearGradient>
<linearGradient id="paint2_linear_31_272" x1="13.9998" y1="5.8335" x2="13.9998" y2="12.8335" gradientUnits="userSpaceOnUse">
<stop stop-color="#0D9488"/>
<stop offset="1"/>
</linearGradient>
<linearGradient id="paint3_linear_31_272" x1="14.5" y1="16.3335" x2="14.5" y2="23.3335" gradientUnits="userSpaceOnUse">
<stop stop-color="#0D9488"/>
<stop offset="1"/>
</linearGradient>
<linearGradient id="paint4_linear_31_272" x1="13.9998" y1="15.167" x2="13.9998" y2="17.5003" gradientUnits="userSpaceOnUse">
<stop stop-color="#0D9488"/>
<stop offset="1"/>
</linearGradient>
</defs>
</svg>
