<svg width="28" height="28" viewBox="0 0 28 28" fill="none" xmlns="http://www.w3.org/2000/svg">
<path d="M20.9998 21.5832C20.5357 21.5832 20.0906 21.3988 19.7624 21.0706C19.4342 20.7424 19.2498 20.2973 19.2498 19.8332C19.2498 19.369 19.4342 18.9239 19.7624 18.5957C20.0906 18.2675 20.5357 18.0832 20.9998 18.0832C21.464 18.0832 21.9091 18.2675 22.2373 18.5957C22.5655 18.9239 22.7498 19.369 22.7498 19.8332C22.7498 20.2973 22.5655 20.7424 22.2373 21.0706C21.9091 21.3988 21.464 21.5832 20.9998 21.5832ZM22.7498 11.0832L25.0365 13.9998H19.8332V11.0832M6.99984 21.5832C6.53571 21.5832 6.09059 21.3988 5.7624 21.0706C5.43421 20.7424 5.24984 20.2973 5.24984 19.8332C5.24984 19.369 5.43421 18.9239 5.7624 18.5957C6.09059 18.2675 6.53571 18.0832 6.99984 18.0832C7.46397 18.0832 7.90909 18.2675 8.23727 18.5957C8.56546 18.9239 8.74984 19.369 8.74984 19.8332C8.74984 20.2973 8.56546 20.7424 8.23727 21.0706C7.90909 21.3988 7.46397 21.5832 6.99984 21.5832ZM23.3332 9.33317H19.8332V4.6665H3.49984C2.20484 4.6665 1.1665 5.70484 1.1665 6.99984V19.8332H3.49984C3.49984 20.7614 3.86859 21.6517 4.52496 22.308C5.18134 22.9644 6.07158 23.3332 6.99984 23.3332C7.92809 23.3332 8.81833 22.9644 9.47471 22.308C10.1311 21.6517 10.4998 20.7614 10.4998 19.8332H17.4998C17.4998 20.7614 17.8686 21.6517 18.525 22.308C19.1813 22.9644 20.0716 23.3332 20.9998 23.3332C21.9281 23.3332 22.8183 22.9644 23.4747 22.308C24.1311 21.6517 24.4998 20.7614 24.4998 19.8332H26.8332V13.9998L23.3332 9.33317Z" fill="url(#paint0_linear_31_272)"/>
<defs>
<linearGradient id="paint0_linear_31_272" x1="13.9998" y1="4.6665" x2="13.9998" y2="23.3332" gradientUnits="userSpaceOnUse">
<stop stop-color="#0D9488"/>
<stop offset="1"/>
</linearGradient>
</defs>
</svg>
