<svg width="28" height="28" viewBox="0 0 28 28" fill="none" xmlns="http://www.w3.org/2000/svg">
<path d="M18.6668 19.8332V22.1665H2.3335V19.8332C2.3335 19.8332 2.3335 15.1665 10.5002 15.1665C18.6668 15.1665 18.6668 19.8332 18.6668 19.8332ZM14.5835 8.74988C14.5835 7.94227 14.344 7.1528 13.8953 6.4813C13.4466 5.8098 12.8089 5.28643 12.0628 4.97737C11.3167 4.66831 10.4956 4.58745 9.70354 4.74501C8.91145 4.90256 8.18387 5.29146 7.61281 5.86253C7.04175 6.43359 6.65285 7.16117 6.49529 7.95326C6.33773 8.74535 6.4186 9.56637 6.72765 10.3125C7.03671 11.0586 7.56008 11.6964 8.23158 12.145C8.90308 12.5937 9.69256 12.8332 10.5002 12.8332C11.5831 12.8332 12.6217 12.403 13.3875 11.6372C14.1533 10.8715 14.5835 9.83285 14.5835 8.74988ZM18.5968 15.1665C19.314 15.7216 19.9009 16.4271 20.3161 17.2333C20.7313 18.0396 20.9648 18.927 21.0002 19.8332V22.1665H25.6668V19.8332C25.6668 19.8332 25.6668 15.5982 18.5968 15.1665ZM17.5002 4.66655C16.6972 4.66281 15.9121 4.90283 15.2485 5.35488C15.9572 6.34507 16.3382 7.53221 16.3382 8.74988C16.3382 9.96755 15.9572 11.1547 15.2485 12.1449C15.9121 12.5969 16.6972 12.8369 17.5002 12.8332C18.5831 12.8332 19.6217 12.403 20.3875 11.6372C21.1533 10.8715 21.5835 9.83285 21.5835 8.74988C21.5835 7.66691 21.1533 6.6283 20.3875 5.86253C19.6217 5.09675 18.5831 4.66655 17.5002 4.66655Z" fill="url(#paint0_linear_31_272)"/>
<defs>
<linearGradient id="paint0_linear_31_272" x1="14.0002" y1="4.6665" x2="14.0002" y2="22.1665" gradientUnits="userSpaceOnUse">
<stop stop-color="#0D9488"/>
<stop offset="1"/>
</linearGradient>
</defs>
</svg>
