<svg width="28" height="28" viewBox="0 0 28 28" fill="none" xmlns="http://www.w3.org/2000/svg">
<path d="M23.9168 12.8332H22.1668V8.1665C22.1668 7.54767 21.921 6.95417 21.4834 6.51659C21.0458 6.079 20.4523 5.83317 19.8335 5.83317H15.1668V4.08317C15.1668 3.30962 14.8595 2.56776 14.3126 2.02078C13.7656 1.47379 13.0237 1.1665 12.2502 1.1665C11.4766 1.1665 10.7347 1.47379 10.1878 2.02078C9.64079 2.56776 9.3335 3.30962 9.3335 4.08317V5.83317H4.66683C4.04799 5.83317 3.4545 6.079 3.01691 6.51659C2.57933 6.95417 2.3335 7.54767 2.3335 8.1665V12.5998H4.0835C5.8335 12.5998 7.2335 13.9998 7.2335 15.7498C7.2335 17.4998 5.8335 18.8998 4.0835 18.8998H2.3335V23.3332C2.3335 23.952 2.57933 24.5455 3.01691 24.9831C3.4545 25.4207 4.04799 25.6665 4.66683 25.6665H9.10016V23.9165C9.10016 22.1665 10.5002 20.7665 12.2502 20.7665C14.0002 20.7665 15.4002 22.1665 15.4002 23.9165V25.6665H19.8335C20.4523 25.6665 21.0458 25.4207 21.4834 24.9831C21.921 24.5455 22.1668 23.952 22.1668 23.3332V18.6665H23.9168C24.6904 18.6665 25.4322 18.3592 25.9792 17.8122C26.5262 17.2653 26.8335 16.5234 26.8335 15.7498C26.8335 14.9763 26.5262 14.2344 25.9792 13.6874C25.4322 13.1405 24.6904 12.8332 23.9168 12.8332Z" fill="url(#paint0_linear_31_272)"/>
<defs>
<linearGradient id="paint0_linear_31_272" x1="14.5835" y1="1.1665" x2="14.5835" y2="25.6665" gradientUnits="userSpaceOnUse">
<stop stop-color="#125F7B"/>
<stop offset="1" stop-color="#9A5187"/>
</linearGradient>
</defs>
</svg>
