<svg width="28" height="28" viewBox="0 0 28 28" fill="none" xmlns="http://www.w3.org/2000/svg">
<path d="M15.1666 2.36829V4.72495C20.2883 5.35495 23.9166 10.01 23.2866 15.1316C22.7499 19.3783 19.4133 22.75 15.1666 23.2516V25.585C21.5833 24.9433 26.2499 19.25 25.6083 12.8333C25.0833 7.29162 20.6849 2.91662 15.1666 2.36829ZM12.8333 2.40329C10.5583 2.62495 8.38827 3.49995 6.61493 4.96995L8.28327 6.69662C9.58993 5.64662 11.1649 4.96995 12.8333 4.73662V2.40329ZM4.96994 6.61495C3.51212 8.38574 2.61454 10.5505 2.3916 12.8333H4.72494C4.9466 11.1766 5.59993 9.60162 6.63827 8.28329L4.96994 6.61495ZM2.40327 15.1666C2.6366 17.4533 3.53493 19.6116 4.9816 21.385L6.63827 19.7166C5.60792 18.3979 4.9511 16.8263 4.7366 15.1666H2.40327ZM8.28327 21.4316L6.61493 23.03C8.3824 24.5027 10.5459 25.4201 12.8333 25.6666V23.3333C11.1735 23.1188 9.60201 22.462 8.28327 21.4316ZM19.6233 17.7216L14.8283 12.9266C15.3066 11.7133 15.0383 10.29 14.0349 9.29829C12.9849 8.23662 11.4099 8.02662 10.1383 8.60995L12.4016 10.8733L10.8266 12.46L8.50493 10.185C7.87493 11.4566 8.1666 13.0316 9.19327 14.0933C10.1966 15.0966 11.6199 15.3533 12.8333 14.8866L17.6283 19.67C17.8383 19.8916 18.1533 19.8916 18.3633 19.67L19.5766 18.4683C19.8333 18.2583 19.8333 17.885 19.6233 17.7216Z" fill="#0D9488"/>
</svg>
