<svg width="28" height="28" viewBox="0 0 28 28" fill="none" xmlns="http://www.w3.org/2000/svg">
<path d="M22.1668 14.3292V16.3336C22.1668 18.4995 21.3064 20.5767 19.7748 22.1083C18.2433 23.6398 16.1661 24.5002 14.0001 24.5002C11.8342 24.5002 9.75698 23.6398 8.22543 22.1083C6.69389 20.5767 5.83347 18.4995 5.83347 16.3336V14.3292L13.2523 17.8374C13.4861 17.9479 13.7415 18.0052 14.0001 18.0052C14.2588 18.0052 14.5142 17.9479 14.748 17.8374L22.1668 14.3292ZM14.748 3.16423L25.3413 8.17389C26.1976 8.57756 26.3061 9.69289 25.6668 10.2774V15.1669C25.6668 15.4763 25.5439 15.7731 25.3251 15.9919C25.1063 16.2106 24.8096 16.3336 24.5001 16.3336C24.1907 16.3336 23.894 16.2106 23.6752 15.9919C23.4564 15.7731 23.3335 15.4763 23.3335 15.1669V11.4452L14.748 15.5052C14.5142 15.6157 14.2588 15.6731 14.0001 15.6731C13.7415 15.6731 13.4861 15.6157 13.2523 15.5052L2.65897 10.4944C2.43946 10.3904 2.25399 10.2261 2.12411 10.0209C1.99424 9.81558 1.92529 9.57765 1.92529 9.33473C1.92529 9.09181 1.99424 8.85388 2.12411 8.64859C2.25399 8.44331 2.43946 8.2791 2.65897 8.17506L13.2523 3.16539C13.4861 3.05488 13.7415 2.99756 14.0001 2.99756C14.2588 2.99756 14.5142 3.05488 14.748 3.16539V3.16423Z" fill="url(#paint0_linear_31_272)"/>
<defs>
<linearGradient id="paint0_linear_31_272" x1="14.001" y1="2.99756" x2="14.001" y2="24.5002" gradientUnits="userSpaceOnUse">
<stop stop-color="#0D9488"/>
<stop offset="1"/>
</linearGradient>
</defs>
</svg>
