<svg width="28" height="28" viewBox="0 0 28 28" fill="none" xmlns="http://www.w3.org/2000/svg">
<path d="M14.0002 0C14.4097 0.000132828 14.819 0.0182336 15.2269 0.05425C16.5272 0.16625 17.4827 1.12875 17.7802 2.2575L18.2842 4.19475C18.3157 4.31025 18.4224 4.47125 18.6552 4.58675C19.06 4.78625 19.4497 5.01142 19.8242 5.26225C20.0394 5.40575 20.2319 5.41975 20.3474 5.3865L22.2777 4.85625C23.4047 4.54825 24.7137 4.893 25.4627 5.95875C25.9364 6.63308 26.347 7.34358 26.6947 8.09025C27.2459 9.2715 26.8889 10.5787 26.0577 11.3995L24.6332 12.81C24.5474 12.894 24.4617 13.0672 24.4792 13.3245C24.5072 13.7748 24.5072 14.2252 24.4792 14.6755C24.4617 14.9327 24.5457 15.106 24.6332 15.19L26.0577 16.6005C26.8889 17.4213 27.2459 18.7285 26.6947 19.9097C26.3473 20.6544 25.9351 21.3671 25.4627 22.0395C24.7137 23.107 23.4047 23.4517 22.2777 23.142L20.3492 22.6135C20.2319 22.5802 20.0394 22.5943 19.8242 22.7378C19.4494 22.9878 19.0589 23.2134 18.6552 23.4132C18.4224 23.5287 18.3157 23.6897 18.2859 23.8052L17.7784 25.7407C17.4844 26.8712 16.5272 27.8337 15.2269 27.9457C14.4107 28.0176 13.5897 28.0176 12.7734 27.9457C11.4732 27.8337 10.5177 26.8712 10.2219 25.7407L9.71619 23.8052C9.68469 23.6897 9.57794 23.5287 9.34519 23.4132C8.94143 23.2134 8.55096 22.9878 8.17619 22.7378C7.96094 22.5943 7.76844 22.5802 7.65294 22.6135L5.72269 23.1438C4.59569 23.4518 3.28669 23.107 2.53769 22.0413C2.06523 21.3683 1.65297 20.655 1.30569 19.9097C0.754438 18.7285 1.11144 17.4213 1.94094 16.6005L3.36719 15.19C3.45469 15.106 3.53869 14.9327 3.52119 14.6755C3.49219 14.2256 3.49219 13.7744 3.52119 13.3245C3.53869 13.0672 3.45469 12.894 3.36719 12.81L1.94094 11.3995C1.11144 10.5787 0.754438 9.2715 1.30569 8.09025C1.65306 7.34555 2.06531 6.63288 2.53769 5.9605C3.28669 4.893 4.59569 4.54825 5.72269 4.858L7.65119 5.3865C7.76844 5.41975 7.96094 5.40575 8.17619 5.26225C8.55069 5.01142 8.94036 4.78625 9.34519 4.58675C9.57794 4.47125 9.68469 4.31025 9.71444 4.19475L10.2219 2.25925C10.5159 1.12875 11.4732 0.16625 12.7734 0.0525C13.1783 0.0175 13.5872 0 14.0002 0ZM13.0009 2.66875C12.9379 2.674 12.8119 2.73175 12.7612 2.92425L12.2554 4.858C11.9982 5.83975 11.2947 6.55025 10.5089 6.93875C10.2056 7.09042 9.91394 7.25958 9.63394 7.44625C8.90419 7.93275 7.93644 8.1865 6.95819 7.91875L5.02794 7.3885C4.83719 7.336 4.72169 7.4165 4.68669 7.46725C4.30169 8.01558 3.96744 8.59308 3.68394 9.19975C3.65944 9.254 3.64719 9.39225 3.78719 9.53225L5.21344 10.9427C5.93269 11.6532 6.19694 12.6175 6.14094 13.4908C6.12116 13.83 6.12116 14.17 6.14094 14.5093C6.19694 15.3825 5.93269 16.3467 5.21344 17.0572L3.78719 18.4678C3.64544 18.6078 3.65944 18.746 3.68394 18.8003C3.96744 19.4069 4.30169 19.9838 4.68669 20.531C4.72169 20.5835 4.83544 20.664 5.02794 20.6115L6.95644 20.0813C7.93644 19.8135 8.90419 20.0672 9.63394 20.5537C9.91627 20.7404 10.2085 20.9096 10.5107 21.0612C11.2929 21.4497 11.9982 22.162 12.2554 23.142L12.7612 25.0758C12.8119 25.2665 12.9379 25.326 13.0009 25.3313C13.6659 25.389 14.3345 25.389 14.9994 25.3313C15.0624 25.326 15.1884 25.2683 15.2392 25.0758L15.7449 23.142C16.0022 22.1602 16.7057 21.4497 17.4914 21.0612C17.7948 20.9096 18.0864 20.7404 18.3664 20.5537C19.0962 20.0672 20.0639 19.8135 21.0422 20.0813L22.9724 20.6115C23.1632 20.6622 23.2787 20.5835 23.3137 20.5327C23.6987 19.9844 24.0329 19.4069 24.3164 18.8003C24.3409 18.746 24.3532 18.6078 24.2132 18.4678L22.7869 17.0572C22.0677 16.3467 21.8034 15.3825 21.8594 14.5093C21.8792 14.17 21.8792 13.83 21.8594 13.4908C21.8034 12.6175 22.0677 11.6532 22.7869 10.9427L24.2132 9.53225C24.3549 9.39225 24.3409 9.254 24.3164 9.19975C24.0337 8.59451 23.6981 8.01535 23.3137 7.469C23.2787 7.4165 23.1649 7.336 22.9724 7.3885L21.0439 7.91875C20.0639 8.1865 19.0962 7.93275 18.3664 7.44625C18.0868 7.25613 17.7938 7.08652 17.4897 6.93875C16.7074 6.55025 16.0022 5.838 15.7449 4.858L15.2392 2.92425C15.1884 2.73175 15.0624 2.674 14.9994 2.66875C14.3345 2.61101 13.6659 2.61101 13.0009 2.66875ZM19.2502 14C19.2502 15.3924 18.6971 16.7277 17.7125 17.7123C16.7279 18.6969 15.3926 19.25 14.0002 19.25C12.6078 19.25 11.2724 18.6969 10.2879 17.7123C9.30331 16.7277 8.75019 15.3924 8.75019 14C8.75019 12.6076 9.30331 11.2723 10.2879 10.2877C11.2724 9.30312 12.6078 8.75 14.0002 8.75C15.3926 8.75 16.7279 9.30312 17.7125 10.2877C18.6971 11.2723 19.2502 12.6076 19.2502 14ZM16.6252 14C16.625 13.3036 16.3481 12.6358 15.8555 12.1435C15.3629 11.6512 14.6949 11.3748 13.9984 11.375C13.302 11.3752 12.6342 11.6521 12.1419 12.1447C11.6496 12.6373 11.3732 13.3053 11.3734 14.0018C11.3737 14.6982 11.6505 15.366 12.1432 15.8583C12.3871 16.102 12.6766 16.2953 12.9952 16.4272C13.3139 16.5591 13.6554 16.6269 14.0002 16.6268C14.345 16.6266 14.6865 16.5586 15.005 16.4265C15.3235 16.2945 15.613 16.1009 15.8567 15.857C16.1005 15.6131 16.2938 15.3236 16.4256 15.0049C16.5575 14.6863 16.6253 14.3448 16.6252 14Z" fill="url(#paint0_linear_31_272)"/>
<defs>
<linearGradient id="paint0_linear_31_272" x1="14.0002" y1="0" x2="14.0002" y2="27.9996" gradientUnits="userSpaceOnUse">
<stop stop-color="#0D9488"/>
<stop offset="1" stop-color="#042E2A"/>
</linearGradient>
</defs>
</svg>
