<svg width="28" height="28" viewBox="0 0 28 28" fill="none" xmlns="http://www.w3.org/2000/svg">
<path opacity="0.5" fill-rule="evenodd" clip-rule="evenodd" d="M25.6666 16.7452C25.6666 20.3841 22.6823 23.3334 19.0003 23.3334H12.2488C11.1838 21.9146 10.5753 20.2055 10.5039 18.4329C10.4325 16.6603 10.9016 14.9079 11.8491 13.408C12.7965 11.9081 14.1774 10.7316 15.8088 10.0346C17.4401 9.3375 19.2449 9.15278 20.9836 9.50491C21.0762 9.83314 21.1423 10.1707 21.1819 10.5176C23.7906 11.4101 25.6666 13.8612 25.6666 16.7452Z" fill="#0D9488"/>
<path d="M14.5553 4.66675C10.8733 4.66675 7.88892 7.61608 7.88892 11.2549C7.88892 12.0599 8.03475 12.8299 8.30192 13.5439C7.98282 13.4822 7.65859 13.451 7.33358 13.4506C4.57208 13.4517 2.33325 15.6637 2.33325 18.3926C2.33325 21.1214 4.57208 23.3334 7.33358 23.3334H12.2499C11.185 21.9146 10.5764 20.2055 10.5051 18.4329C10.4337 16.6603 10.9028 14.9079 11.8502 13.408C12.7976 11.9081 14.1786 10.7316 15.8099 10.0346C17.4413 9.3375 19.246 9.15278 20.9848 9.50491L20.9299 9.32058C20.0946 6.62675 17.5559 4.66675 14.5553 4.66675Z" fill="#0D9488"/>
</svg>
