<svg width="24" height="24" viewBox="0 0 24 24" fill="none" xmlns="http://www.w3.org/2000/svg">
<path d="M18.5299 11.4701C18.6697 11.6111 18.748 11.8016 18.748 12.0001C18.748 12.1986 18.6697 12.3891 18.5299 12.5301L13.5299 17.5301C13.4613 17.6038 13.3785 17.6629 13.2865 17.7039C13.1945 17.7449 13.0952 17.7669 12.9945 17.7687C12.8938 17.7705 12.7937 17.7519 12.7003 17.7142C12.607 17.6765 12.5221 17.6203 12.4509 17.5491C12.3797 17.4779 12.3235 17.3931 12.2858 17.2997C12.2481 17.2063 12.2296 17.1063 12.2313 17.0056C12.2331 16.9049 12.2552 16.8056 12.2962 16.7136C12.3371 16.6216 12.3963 16.5388 12.4699 16.4701L16.1899 12.7501H5.99994C5.80103 12.7501 5.61026 12.6711 5.46961 12.5304C5.32896 12.3898 5.24994 12.199 5.24994 12.0001C5.24994 11.8012 5.32896 11.6104 5.46961 11.4698C5.61026 11.3291 5.80103 11.2501 5.99994 11.2501H16.1899L12.4699 7.53009C12.3375 7.38792 12.2653 7.19987 12.2688 7.00557C12.2722 6.81127 12.3509 6.62588 12.4883 6.48847C12.6257 6.35106 12.8111 6.27234 13.0054 6.26892C13.1997 6.26549 13.3878 6.33761 13.5299 6.47009L18.5299 11.4701Z" fill="white"/>
</svg>
