<svg width="28" height="28" viewBox="0 0 28 28" fill="none" xmlns="http://www.w3.org/2000/svg">
<g clip-path="url(#clip0_31_272)">
<path fill-rule="evenodd" clip-rule="evenodd" d="M6.80067 10.5992C8.20533 10.5035 9.48575 11.431 9.69925 12.9208C9.81883 13.7556 9.91683 14.9502 9.91683 16.625C9.91683 18.3003 9.81883 19.495 9.69925 20.3298C9.47583 21.8896 8.08225 22.8328 6.60175 22.6304C5.221 22.4414 3.86067 22.0657 2.981 21.7916C1.98817 21.4824 1.15692 20.6908 0.909 19.5918C0.691917 18.6178 0.582759 17.6229 0.5835 16.625C0.5835 15.407 0.746833 14.3803 0.909 13.6588C1.12658 12.6933 1.79392 11.9659 2.62517 11.5932C2.66717 5.6525 7.7585 0.875 14.0002 0.875C20.2418 0.875 25.3332 5.6525 25.3752 11.5932C26.2064 11.9659 26.8738 12.6933 27.0913 13.6582C27.2541 14.3803 27.4168 15.407 27.4168 16.625C27.4168 17.843 27.2535 18.8697 27.0913 19.5918C26.8563 20.6348 26.0962 21.4002 25.171 21.7402C24.5538 23.7638 23.3277 25.1627 21.426 26.0114C19.5418 26.8514 17.0557 27.1238 14.0002 27.1238C13.6907 27.1238 13.394 27.0009 13.1752 26.7821C12.9564 26.5633 12.8335 26.2666 12.8335 25.9572C12.8335 25.6477 12.9564 25.351 13.1752 25.1322C13.394 24.9134 13.6907 24.7905 14.0002 24.7905C16.9927 24.7905 19.0629 24.5105 20.4752 23.8805C21.2335 23.5422 21.8168 23.0971 22.2543 22.491C21.972 22.5439 21.6869 22.5906 21.3992 22.631C19.9181 22.8328 18.5245 21.8896 18.3017 20.3298C18.1815 19.495 18.0835 18.2997 18.0835 16.6256C18.0835 14.9502 18.1815 13.7556 18.3011 12.9202C18.5146 11.431 19.795 10.5035 21.2002 10.5992C20.6443 7.4165 17.6501 4.95833 14.0002 4.95833C10.3502 4.95833 7.35542 7.4165 6.80067 10.5992ZM6.91733 12.9313C7.07775 12.9097 7.18683 12.9512 7.251 12.9978C7.31167 13.0416 7.37 13.1162 7.38925 13.251C7.49017 13.9568 7.5835 15.0389 7.5835 16.625C7.5835 18.2117 7.49017 19.2932 7.38925 19.999C7.37 20.1337 7.31108 20.209 7.251 20.2528C7.18683 20.2994 7.07775 20.3402 6.91733 20.3187C5.72033 20.1553 4.49942 19.8205 3.67517 19.5638C3.39342 19.4763 3.23125 19.2821 3.18517 19.0791C3.00603 18.2734 2.91605 17.4504 2.91683 16.625C2.91683 15.6123 3.05275 14.7601 3.18517 14.1715C3.23125 13.9685 3.39342 13.7742 3.67517 13.6862C4.49942 13.4295 5.72033 13.0952 6.91733 12.9313ZM20.7493 12.9978C20.6892 13.0416 20.6303 13.1162 20.6111 13.251C20.5102 13.9568 20.4168 15.0389 20.4168 16.625C20.4168 18.2117 20.5102 19.2932 20.6111 19.999C20.6303 20.1337 20.6892 20.209 20.7493 20.2528C20.8135 20.2994 20.9226 20.3402 21.083 20.3187C22.28 20.1553 23.5009 19.8205 24.3252 19.5638C24.6069 19.4763 24.7691 19.2821 24.8152 19.0791C24.9476 18.4899 25.0835 17.6382 25.0835 16.625C25.0842 15.7998 24.9943 14.977 24.8152 14.1715C24.7691 13.9685 24.6069 13.7742 24.3252 13.6862C23.5009 13.4295 22.28 13.0952 21.083 12.9313C20.9226 12.9097 20.8135 12.9512 20.7493 12.9978Z" fill="url(#paint0_linear_31_272)"/>
</g>
<defs>
<linearGradient id="paint0_linear_31_272" x1="14.0002" y1="0.875" x2="14.0002" y2="27.1238" gradientUnits="userSpaceOnUse">
<stop stop-color="#0D9488"/>
<stop offset="1"/>
</linearGradient>
<clipPath id="clip0_31_272">
<rect width="28" height="28" fill="white"/>
</clipPath>
</defs>
</svg>
