<svg width="28" height="28" viewBox="0 0 28 28" fill="none" xmlns="http://www.w3.org/2000/svg">
<g clip-path="url(#clip0_31_272)">
<path fill-rule="evenodd" clip-rule="evenodd" d="M15.7661 0.230053C13.8533 -0.000960216 11.9177 0.406585 10.2604 1.38931C8.60312 2.37203 7.31702 3.87485 6.60211 5.66405C5.10864 5.82929 3.70108 6.4461 2.56731 7.43216C1.43354 8.41822 0.627477 9.72662 0.256709 11.1827C-0.114058 12.6389 -0.0318944 14.1734 0.492235 15.5816C1.01636 16.9898 1.95752 18.2047 3.1901 19.0641C3.0817 18.4332 3.1263 17.7855 3.32014 17.1754C3.51399 16.5653 3.85143 16.0107 4.3041 15.5581L8.3041 11.5581C8.67888 11.1833 9.12438 10.8868 9.61473 10.6857C10.1051 10.4846 10.6305 10.383 11.1605 10.3867C11.6904 10.3905 12.2144 10.4995 12.7019 10.7074C13.1893 10.9153 13.6306 11.2181 14.0001 11.5981C14.5549 11.0274 15.2673 10.6352 16.0463 10.4717C16.8252 10.3082 17.6352 10.3807 18.3726 10.6801C19.1101 10.9794 19.7415 11.492 20.186 12.1522C20.6306 12.8124 20.868 13.5902 20.8681 14.3861V18.3861C21.467 18.3859 22.0582 18.5203 22.5982 18.7792C23.1382 19.0382 23.6132 19.415 23.9881 19.8821C25.221 19.3727 26.266 18.494 26.9793 17.3667C27.6926 16.2394 28.0394 14.9189 27.9719 13.5866C27.9043 12.2543 27.4259 10.9756 26.6023 9.92617C25.7786 8.87678 24.6502 8.1082 23.3721 7.72605C23.1112 5.8116 22.2232 4.03756 20.8471 2.68131C19.4709 1.32506 17.6842 0.46305 15.7661 0.230053ZM11.7061 13.0001C11.9802 13.1136 12.2145 13.3059 12.3793 13.5526C12.5442 13.7993 12.6321 14.0893 12.6321 14.3861V26.3861C12.6321 26.7839 12.4741 27.1654 12.1928 27.4467C11.9115 27.728 11.5299 27.8861 11.1321 27.8861C10.7343 27.8861 10.3527 27.728 10.0714 27.4467C9.79014 27.1654 9.6321 26.7839 9.6321 26.3861V18.0061L8.19211 19.4461C8.05478 19.5934 7.88918 19.7116 7.70518 19.7936C7.52118 19.8756 7.32256 19.9197 7.12115 19.9232C6.91974 19.9268 6.71969 19.8897 6.53291 19.8143C6.34613 19.7389 6.17647 19.6266 6.03403 19.4841C5.89159 19.3417 5.7793 19.172 5.70386 18.9852C5.62842 18.7985 5.59137 18.5984 5.59492 18.397C5.59848 18.1956 5.64256 17.997 5.72454 17.813C5.80653 17.629 5.92473 17.4634 6.0721 17.3261L10.0721 13.3261C10.2817 13.1163 10.5488 12.9733 10.8397 12.9153C11.1305 12.8573 11.432 12.8868 11.7061 13.0001ZM18.3681 14.3861C18.3681 13.9882 18.2101 13.6067 17.9288 13.3254C17.6475 13.0441 17.2659 12.8861 16.8681 12.8861C16.4703 12.8861 16.0887 13.0441 15.8074 13.3254C15.5261 13.6067 15.3681 13.9882 15.3681 14.3861V26.3861C15.3684 26.6825 15.4565 26.9723 15.6213 27.2187C15.7862 27.4651 16.0203 27.6572 16.2943 27.7706C16.5682 27.8841 16.8696 27.9138 17.1604 27.856C17.4512 27.7982 17.7183 27.6556 17.9281 27.4461L21.9281 23.4461C22.1931 23.1617 22.3373 22.7856 22.3305 22.397C22.3236 22.0084 22.1662 21.6376 21.8913 21.3628C21.6165 21.088 21.2458 20.9306 20.8571 20.9237C20.4685 20.9168 20.0925 21.0611 19.8081 21.3261L18.3681 22.7661V14.3861Z" fill="url(#paint0_linear_31_272)"/>
</g>
<defs>
<linearGradient id="paint0_linear_31_272" x1="14.0042" y1="0.166992" x2="14.0042" y2="27.8861" gradientUnits="userSpaceOnUse">
<stop stop-color="#125F7B"/>
<stop offset="1" stop-color="#9A5187"/>
</linearGradient>
<clipPath id="clip0_31_272">
<rect width="28" height="28" fill="white"/>
</clipPath>
</defs>
</svg>
