<svg width="28" height="28" viewBox="0 0 28 28" fill="none" xmlns="http://www.w3.org/2000/svg">
<path fill-rule="evenodd" clip-rule="evenodd" d="M14.49 2.04325C14.1633 2.04092 13.8367 2.04092 13.51 2.04325C11.2128 2.05958 9.2925 2.87508 7.91117 4.25933C6.57183 5.601 5.75517 7.46183 5.57783 9.60558C2.7475 10.5873 0.875 13.049 0.875 16.3332C0.875 18.418 1.62983 20.1785 2.91783 21.4379C4.20467 22.6962 6.00717 23.4382 8.07975 23.5204C8.29597 23.5294 8.51939 23.5375 8.75 23.5449V20.9409C8.13566 21.0663 7.49726 20.9904 6.92947 20.7244C6.36167 20.4584 5.89469 20.0166 5.59778 19.4643C5.30087 18.9121 5.18982 18.2788 5.28111 17.6585C5.3724 17.0382 5.66116 16.4638 6.10458 16.0205L9.60458 12.5205C9.90008 12.2251 10.2556 11.9966 10.6471 11.8505C11.0386 11.7045 11.4569 11.6442 11.8736 11.6739C12.2904 11.7035 12.696 11.8224 13.0628 12.0224C13.4297 12.2224 13.7493 12.4989 14 12.8332C14.3673 12.3434 14.8794 11.9817 15.4637 11.7992C16.048 11.6166 16.6749 11.6226 17.2557 11.8162C17.8364 12.0098 18.3415 12.3812 18.6995 12.8778C19.0574 13.3744 19.25 13.971 19.25 14.5832V18.7248C19.8053 18.6119 20.3814 18.6631 20.9081 18.8722C21.4347 19.0813 21.8891 19.4392 22.2157 19.9022C22.5423 20.3653 22.7271 20.9134 22.7474 21.4797C22.7677 22.0459 22.6226 22.6059 22.33 23.0911C23.3922 22.7382 24.3262 22.177 25.0822 21.4379C26.3707 20.1785 27.125 18.418 27.125 16.3332C27.125 13.0484 25.2525 10.5873 22.4222 9.60558C22.2448 7.46125 21.4282 5.601 20.0888 4.25933C18.7075 2.87508 16.7872 2.05958 14.49 2.04325ZM7.34183 18.908C7.12312 18.6892 7.00025 18.3925 7.00025 18.0832C7.00025 17.7738 7.12312 17.4771 7.34183 17.2583L10.8418 13.7583C11.005 13.5952 11.2129 13.4841 11.4391 13.4392C11.6654 13.3942 11.8999 13.4173 12.1131 13.5055C12.3262 13.5938 12.5084 13.7433 12.6366 13.9351C12.7648 14.1269 12.8333 14.3525 12.8333 14.5832V25.0832C12.8333 25.3926 12.7104 25.6893 12.4916 25.9081C12.2728 26.1269 11.9761 26.2498 11.6667 26.2498C11.3572 26.2498 11.0605 26.1269 10.8417 25.9081C10.6229 25.6893 10.5 25.3926 10.5 25.0832V17.3995L8.9915 18.908C8.77272 19.1267 8.47602 19.2496 8.16667 19.2496C7.85731 19.2496 7.56062 19.1267 7.34183 18.908ZM20.6582 22.408C20.7696 22.3004 20.8585 22.1716 20.9196 22.0293C20.9808 21.887 21.0129 21.7339 21.0143 21.579C21.0156 21.4241 20.9861 21.2704 20.9275 21.1271C20.8688 20.9837 20.7822 20.8534 20.6726 20.7439C20.5631 20.6343 20.4328 20.5477 20.2894 20.489C20.1461 20.4304 19.9924 20.4009 19.8375 20.4022C19.6826 20.4036 19.5295 20.4357 19.3872 20.4969C19.2449 20.558 19.1161 20.6469 19.0085 20.7583L17.5 22.2668V14.5832C17.5 14.2737 17.3771 13.977 17.1583 13.7582C16.9395 13.5394 16.6428 13.4165 16.3333 13.4165C16.0239 13.4165 15.7272 13.5394 15.5084 13.7582C15.2896 13.977 15.1667 14.2737 15.1667 14.5832V25.0832C15.1667 25.3139 15.2352 25.5394 15.3634 25.7312C15.4916 25.923 15.6738 26.0725 15.8869 26.1608C16.1001 26.2491 16.3346 26.2722 16.5609 26.2272C16.7871 26.1822 16.995 26.0711 17.1582 25.908L20.6582 22.408Z" fill="url(#paint0_linear_31_272)"/>
<defs>
<linearGradient id="paint0_linear_31_272" x1="14" y1="2.0415" x2="14" y2="26.2498" gradientUnits="userSpaceOnUse">
<stop stop-color="#0D9488"/>
<stop offset="1"/>
</linearGradient>
</defs>
</svg>
