<svg width="48" height="48" viewBox="0 0 48 48" fill="none" xmlns="http://www.w3.org/2000/svg">
<path fill-rule="evenodd" clip-rule="evenodd" d="M22.254 39.244L7.55004 25.132C6.31404 23.832 5.15204 20.536 6.85604 18.94C7.31604 18.508 8.09204 17.79 9.02604 16.924C11.6487 14.5047 14.2521 12.0647 16.836 9.60403C18.636 7.86803 20.852 7.26603 22.99 9.19803C24.7425 10.7873 26.4635 12.4109 28.152 14.068L24.052 25.678L20.15 29.322L24.128 33.218L22.254 39.244ZM12.158 21.58L20.264 14.048L24.124 17.832L16.114 25.442L12.158 21.58Z" fill="white"/>
<path fill-rule="evenodd" clip-rule="evenodd" d="M20.01 21.74L28.006 29.486L22.152 35.038C21.444 35.744 20.454 37.572 22.152 39.246C23.846 40.922 25.892 39.416 26.704 38.454L40.564 25.078C41.464 24.034 43.088 20.964 40.928 18.83C38.8819 16.8286 36.8043 14.8597 34.696 12.924C33.676 12.108 30.904 11.192 27.992 14.07C25.3672 16.6636 22.7069 19.2212 20.012 21.742M28.142 21.746L32.136 25.658L36.098 21.952L31.978 18.06L28.142 21.746Z" fill="white"/>
<path d="M28.1481 21.7321L24.0761 25.6081L20.0081 21.7321L24.0781 17.8721L28.1481 21.7321Z" fill="white"/>
</svg>
