<svg width="200" height="100" viewBox="0 0 200 100" fill="none" xmlns="http://www.w3.org/2000/svg">
<g clip-path="url(#clip0_272_130)">
<path fill-rule="evenodd" clip-rule="evenodd" d="M60.582 10H139.418C141.957 10.0074 144.39 11.0193 146.185 12.8147C147.981 14.61 148.993 17.043 149 19.582V63.141C148.993 65.68 147.981 68.113 146.185 69.9083C144.39 71.7037 141.957 72.7156 139.418 72.723H60.582C58.043 72.7156 55.61 71.7037 53.8147 69.9083C52.0193 68.113 51.0074 65.68 51 63.141V19.582C51.0074 17.043 52.0193 14.61 53.8147 12.8147C55.61 11.0193 58.043 10.0074 60.582 10Z" fill="#E50019"/>
<path d="M54.61 82.9609V89.2919H52.724V75.8419H54.918C55.28 75.8167 55.6431 75.8712 55.9817 76.0014C56.3203 76.1317 56.6263 76.3346 56.878 76.5959C57.1167 76.8871 57.3012 77.2187 57.423 77.5749C57.5697 77.9923 57.6405 78.4326 57.632 78.8749L57.649 79.4099C57.6708 80.2253 57.5198 81.0361 57.206 81.7889C57.126 82.0495 56.9954 82.2916 56.8215 82.5015C56.6477 82.7114 56.4341 82.8848 56.193 83.0119L58.236 89.2919H56.276L54.61 82.9609ZM55.656 79.6439C55.6719 79.1939 55.5918 78.7456 55.421 78.3289C55.3525 78.1755 55.2398 78.046 55.0973 77.9569C54.9548 77.8678 54.789 77.8233 54.621 77.8289L54.604 81.5559C54.7562 81.5529 54.9053 81.5123 55.038 81.4378C55.1708 81.3633 55.2831 81.2572 55.365 81.1289C55.5798 80.6645 55.6796 80.1551 55.656 79.6439Z" fill="#1A1818"/>
<path d="M63.152 89.292H58.797V75.842H63.152V77.836H60.681V81.395H62.917V83.388H60.681V87.266H63.152V89.292Z" fill="#1A1818"/>
<path d="M69.466 89.292H67.531L67.078 86.78H65.294L64.883 89.292H62.983L65.483 75.842H66.99L69.466 89.292ZM65.588 84.913H66.825L66.173 80.441L65.588 84.913Z" fill="#1A1818"/>
<path d="M75.672 82.944C75.6712 83.814 75.6094 84.6828 75.487 85.544C75.4021 86.2738 75.2044 86.9859 74.901 87.655C74.7829 87.8771 74.6397 88.0848 74.474 88.274C74.3167 88.4506 74.1364 88.6053 73.938 88.734C73.5744 88.9712 73.1659 89.1312 72.738 89.204C72.4494 89.2418 72.159 89.2639 71.868 89.27C71.65 89.281 71.477 89.287 71.348 89.287H69.907V75.842H72.168C73.9327 75.842 75.016 77.0034 75.418 79.326C75.5896 80.5244 75.6745 81.7335 75.672 82.944ZM73.678 82.911C73.7158 81.697 73.6314 80.4822 73.426 79.285C73.1767 78.309 72.638 77.8207 71.81 77.82L71.793 87.299C72.011 87.307 72.2282 87.2686 72.4302 87.1864C72.6322 87.1042 72.8145 86.98 72.965 86.822C73.304 86.4848 73.516 86.0407 73.565 85.565C73.62 85.085 73.655 84.656 73.665 84.276C73.6743 83.9134 73.6786 83.4584 73.678 82.911Z" fill="#1A1818"/>
<path d="M79.994 75.842H82.037L79.943 83.472V89.292H78.016V83.506L75.774 75.842H77.801L79.04 81.194L79.994 75.842Z" fill="#1A1818"/>
<path d="M86.584 89.292H85.209L84.061 81.755L83.717 89.292H81.883L82.822 75.842H84.471L86.029 85.155L87.109 75.842H88.793L89.839 89.292H87.972L87.745 81.914L86.584 89.292Z" fill="#1A1818"/>
<path d="M92.514 89.292H90.629V75.842H92.514V89.292Z" fill="#1A1818"/>
<path d="M96.307 85.498L95.294 89.292H93.25L95.411 82.459L93.393 75.842H95.311L96.476 80.047L97.476 75.842H99.435L97.304 82.425L99.415 89.292H97.463L96.307 85.498Z" fill="#1A1818"/>
<path d="M107.839 88.949C107.642 89.1208 107.415 89.2545 107.169 89.343C106.92 89.4226 106.66 89.462 106.398 89.46C105.881 89.4592 105.373 89.3234 104.925 89.066C104.472 88.82 104.098 88.4516 103.844 88.003C103.666 87.7013 103.528 87.3776 103.434 87.04C103.289 86.6152 103.175 86.1808 103.091 85.74C103.012 85.2066 102.948 84.6953 102.897 84.206C102.852 83.7266 102.829 83.2133 102.83 82.666C102.828 81.7956 102.893 80.9264 103.023 80.066C103.111 79.3316 103.272 78.6077 103.502 77.905C103.733 77.2683 104.121 76.7005 104.631 76.255C105.084 75.8745 105.657 75.6669 106.248 75.669C106.503 75.6715 106.756 75.7095 107.001 75.782C107.292 75.8699 107.573 75.9896 107.838 76.139V78.367C107.63 78.1897 107.399 78.0405 107.152 77.923C106.981 77.8435 106.795 77.8006 106.607 77.797C106.326 77.8002 106.056 77.9111 105.854 78.107C105.584 78.3592 105.379 78.6722 105.254 79.02C105.102 79.4868 105.006 79.9703 104.969 80.46C104.936 80.734 104.9 81.06 104.862 81.431C104.827 81.822 104.811 82.258 104.811 82.738C104.805 83.4837 104.858 84.2287 104.97 84.966C104.993 85.255 105.055 85.5396 105.155 85.812C105.248 86.0967 105.369 86.3716 105.515 86.633C105.63 86.8556 105.804 87.0422 106.019 87.1721C106.233 87.3019 106.479 87.3701 106.73 87.369C106.902 87.3467 107.07 87.302 107.23 87.236C107.443 87.1198 107.647 86.9881 107.84 86.842L107.839 88.949Z" fill="#1A1818"/>
<path d="M114.397 83.0289C114.453 84.6124 114.221 86.1929 113.71 87.6929C113.556 88.212 113.236 88.6662 112.799 88.9855C112.361 89.3048 111.831 89.4715 111.29 89.4599C110.985 89.4691 110.681 89.416 110.398 89.3037C110.114 89.1914 109.856 89.0224 109.64 88.8069C109.133 88.2499 108.779 87.5718 108.61 86.8379C108.472 86.3247 108.377 85.8009 108.326 85.2719C108.249 84.6637 108.212 84.051 108.217 83.4379V82.7509C108.2 82.6736 108.189 82.595 108.184 82.5159C108.184 81.9079 108.201 81.3746 108.234 80.9159C108.267 80.4699 108.321 79.9719 108.393 79.4259C108.508 78.5954 108.757 77.7892 109.131 77.0389C109.275 76.7243 109.489 76.4464 109.756 76.2261C110.022 76.0058 110.336 75.8488 110.672 75.7669C110.892 75.7178 111.116 75.695 111.341 75.6989C111.773 75.692 112.198 75.804 112.57 76.0227C112.943 76.2415 113.248 76.5584 113.452 76.9389C113.705 77.3776 113.906 77.844 114.052 78.3289C114.201 78.8291 114.279 79.348 114.282 79.8699C114.282 80.4899 114.299 81.0619 114.332 81.5859C114.352 82.1229 114.374 82.6049 114.397 83.0289ZM112.412 82.2589C112.412 79.2656 112.055 77.7689 111.34 77.7689C111.177 77.7966 111.026 77.8707 110.904 77.9822C110.782 78.0938 110.695 78.2381 110.653 78.3979C110.558 78.6374 110.482 78.8842 110.427 79.1359C110.372 79.4093 110.327 79.7093 110.294 80.0359C110.221 80.804 110.187 81.5754 110.194 82.3469L110.227 83.0679C110.195 84.1425 110.277 85.2175 110.471 86.2749C110.627 86.9723 110.901 87.3389 111.292 87.3749L111.409 87.3419C111.616 87.3419 111.8 87.1889 111.962 86.8819C112.127 86.4927 112.231 86.0806 112.272 85.6599C112.357 85.0859 112.396 84.5061 112.389 83.9259L112.412 82.2589Z" fill="#1A1818"/>
<path d="M117.177 89.292H115.46V75.842H117.227L119.203 83.748C119.236 83.4527 119.253 82.586 119.254 81.148V78.054C119.242 77.3114 119.225 76.574 119.203 75.842H121.02V89.292H119.413L117.084 82.099C117.084 82.6184 117.095 83.6427 117.117 85.172C117.134 86.7134 117.154 88.0867 117.177 89.292Z" fill="#1A1818"/>
<path d="M127.077 88.949C126.88 89.1209 126.652 89.2546 126.406 89.343C126.157 89.4226 125.897 89.4621 125.636 89.46C125.118 89.4593 124.61 89.3235 124.161 89.066C123.708 88.8198 123.334 88.4515 123.081 88.003C122.902 87.7017 122.763 87.3778 122.67 87.04C122.525 86.6153 122.41 86.1809 122.326 85.74C122.247 85.2066 122.183 84.6953 122.133 84.206C122.088 83.7266 122.066 83.2133 122.067 82.666C122.065 81.7957 122.129 80.9265 122.259 80.066C122.348 79.3318 122.507 78.6081 122.736 77.905C122.967 77.268 123.356 76.7003 123.867 76.255C124.319 75.8748 124.892 75.6671 125.483 75.669C125.738 75.6716 125.992 75.7096 126.237 75.782C126.528 75.8703 126.809 75.99 127.074 76.139V78.367C126.865 78.19 126.634 78.0408 126.387 77.923C126.216 77.8435 126.031 77.8006 125.843 77.797C125.561 77.8008 125.292 77.9116 125.089 78.107C124.819 78.3591 124.613 78.6722 124.489 79.02C124.337 79.4868 124.241 79.9703 124.205 80.46C124.171 80.734 124.134 81.06 124.096 81.431C124.062 81.822 124.046 82.258 124.046 82.738C124.039 83.4837 124.092 84.2288 124.205 84.966C124.227 85.2551 124.289 85.5398 124.389 85.812C124.481 86.0968 124.601 86.3719 124.748 86.633C124.863 86.8556 125.038 87.042 125.252 87.1719C125.466 87.3018 125.712 87.3699 125.963 87.369C126.135 87.3468 126.303 87.3021 126.463 87.236C126.676 87.1196 126.88 86.9879 127.074 86.842L127.077 88.949Z" fill="#1A1818"/>
<path d="M129.631 82.9609V89.2919H127.746V75.8419H129.94C130.302 75.8168 130.665 75.8712 131.003 76.0015C131.342 76.1318 131.647 76.3347 131.899 76.5959C132.138 76.8869 132.322 77.2186 132.444 77.5749C132.591 77.9923 132.662 78.4326 132.653 78.8749L132.67 79.4099C132.692 80.2254 132.54 81.0362 132.226 81.7889C132.146 82.0495 132.016 82.2918 131.842 82.5017C131.668 82.7116 131.454 82.885 131.213 83.0119L133.256 89.2919H131.297L129.631 82.9609ZM130.677 79.6439C130.693 79.1938 130.613 78.7455 130.442 78.3289C130.374 78.1755 130.261 78.0459 130.118 77.9569C129.976 77.8678 129.81 77.8233 129.642 77.8289L129.625 81.5559C129.777 81.5529 129.927 81.5124 130.06 81.4379C130.192 81.3634 130.305 81.2573 130.387 81.1289C130.601 80.6643 130.701 80.155 130.677 79.6439Z" fill="#1A1818"/>
<path d="M138.173 89.292H133.818V75.842H138.173V77.836H135.703V81.395H137.938V83.388H135.703V87.266H138.173V89.292Z" fill="#1A1818"/>
<path d="M143.232 77.836H141.591V89.292H139.647V77.836H137.947V75.842H143.231L143.232 77.836Z" fill="#1A1818"/>
<path d="M147.947 89.292H143.592V75.842H147.947V77.836H145.477V81.395H147.712V83.388H145.477V87.266H147.947V89.292Z" fill="#1A1818"/>
<path d="M99.468 66.25L100.654 60.072H110.835C111.369 59.734 111.549 59.321 111.499 59.113C111.46 58.951 111.166 58.841 110.767 58.838L106.402 58.544C105.741 58.5157 105.096 58.3302 104.52 58.0029C103.945 57.6756 103.456 57.2159 103.094 56.662C102.529 55.4965 102.418 54.1626 102.783 52.92L101.983 53.471L100.551 52.205C102.251 48.922 103.591 47.084 106.165 46.153C107.217 45.763 108.327 45.5538 109.448 45.534L121.125 45.481L119.706 51.438L110.816 51.456C109.542 51.665 109.107 52.002 108.895 52.923C108.861 53.067 109.122 53.277 109.422 53.423L113.769 53.506C114.645 53.538 115.494 53.8197 116.215 54.318C116.836 54.7773 117.326 55.3918 117.635 56.1C117.945 56.8081 118.062 57.585 117.977 58.353C117.838 59.7906 117.354 61.1735 116.567 62.384C115.779 63.5945 114.71 64.5969 113.452 65.306C112.532 65.7462 111.537 66.0066 110.519 66.073L99.468 66.25ZM102.282 62.041L101.86 64.241L110.393 64.102C111.122 64.0592 111.837 63.8798 112.5 63.573C113.466 63.0259 114.287 62.2571 114.897 61.33C115.507 60.403 115.888 59.3442 116.008 58.241C116.066 57.8083 116.011 57.3682 115.849 56.9627C115.688 56.5573 115.424 56.2003 115.085 55.926C114.684 55.6516 114.215 55.4934 113.73 55.469L108.867 55.319C107.443 54.782 106.701 53.668 106.974 52.48C107.165 51.6558 107.622 50.9173 108.274 50.3782C108.926 49.839 109.738 49.529 110.583 49.496L110.733 49.485L118.148 49.47L118.627 47.461L109.456 47.503C108.56 47.521 107.673 47.6901 106.833 48.003C105.83 48.3594 104.95 48.9959 104.297 49.837L105.534 50.837C105.173 51.724 104.072 54.423 104.799 55.676C105.009 55.9562 105.28 56.1843 105.592 56.3423C105.905 56.5003 106.249 56.5841 106.599 56.587L110.84 56.872C111.41 56.8235 111.978 56.9753 112.448 57.3011C112.918 57.6269 113.26 58.1064 113.414 58.657C113.515 59.3335 113.385 60.0242 113.047 60.6185C112.708 61.2127 112.179 61.6759 111.546 61.934L111.333 62.044L102.282 62.041Z" fill="white"/>
<path d="M121.325 66.1511L126.125 51.5361L123.205 51.4871C121.919 52.035 120.793 52.9004 119.932 54.0021L118.332 52.8921C120.248 49.0611 122.092 46.6281 125.851 45.5311L126.126 45.4921L140.079 45.4851L138.007 51.5131L133.188 51.5411L128.839 66.0981L121.325 66.1511ZM122.843 49.5111L128.828 49.6111L124.051 64.1571L127.371 64.1341L131.711 49.5741L136.592 49.5461L137.312 47.4511L126.264 47.4561C124.962 47.8282 123.78 48.537 122.839 49.5111H122.843Z" fill="white"/>
<path d="M74.063 65.9561L59.963 65.9051L64.496 51.7741C64.344 51.9351 64.19 52.1041 64.032 52.2741L63.722 52.6121L62.046 51.6941C62.2922 50.4901 62.7982 49.3543 63.5286 48.366C64.259 47.3777 65.1963 46.5608 66.275 45.9721C66.8511 45.7059 67.474 45.5557 68.108 45.5301L79.098 45.4861C80.1495 45.4879 81.163 45.8798 81.942 46.5861C82.5169 47.0532 82.9669 47.6557 83.2517 48.3395C83.5365 49.0232 83.6473 49.767 83.574 50.5041C83.3683 51.5756 82.9366 52.591 82.3075 53.4825C81.6785 54.374 80.8666 55.1211 79.926 55.6741C80.4008 56.2935 80.7447 57.0029 80.9369 57.7593C81.1291 58.5156 81.1655 59.3032 81.044 60.0741C80.8361 61.1806 80.3618 62.2197 79.662 63.1017C78.9623 63.9837 78.0582 64.682 77.028 65.1361C76.1024 65.5997 75.0953 65.8783 74.063 65.9561ZM62.656 63.9431L73.964 63.9891C74.7376 63.9274 75.4912 63.7126 76.181 63.3571C76.9208 63.0398 77.5724 62.5477 78.0802 61.9231C78.5879 61.2985 78.9365 60.56 79.096 59.7711C79.1872 59.1036 79.1097 58.4239 78.8708 57.7941C78.6318 57.1642 78.2389 56.6042 77.728 56.1651L76.741 55.2381L77.927 54.5851C80.04 53.4221 81.451 51.7781 81.609 50.2941C81.6498 49.8724 81.5827 49.4472 81.4141 49.0585C81.2455 48.6699 80.9808 48.3304 80.645 48.0721C80.2217 47.6761 79.6637 47.4559 79.084 47.4561L68.111 47.5001C67.7626 47.5255 67.4214 47.6121 67.103 47.7561C66.823 47.8885 66.5587 48.0518 66.315 48.2431L67.838 47.7781L62.656 63.9431ZM73 62.5831L66.454 62.4471L68.907 55.9081H75.145L75.445 56.2971C75.8017 56.8138 76.0283 57.4091 76.1056 58.0322C76.1829 58.6553 76.1086 59.2878 75.889 59.8761C75.6851 60.5127 75.3277 61.0893 74.8483 61.5551C74.3689 62.0209 73.7822 62.3616 73.14 62.5471L73 62.5831ZM69.275 60.5351L72.744 60.6071C73.0465 60.4907 73.3185 60.307 73.5396 60.0701C73.7606 59.8331 73.9249 59.5489 74.02 59.2391C74.1792 58.8019 74.1964 58.3256 74.069 57.8781H70.269L69.275 60.5351ZM75.455 55.2161L68.909 55.0811L71.361 48.5431H77.6L77.9 48.9321C78.2571 49.4486 78.4839 50.044 78.5611 50.6672C78.6382 51.2904 78.5634 51.923 78.343 52.5111C78.1391 53.1475 77.7817 53.724 77.3022 54.1897C76.8228 54.6553 76.2362 54.9958 75.594 55.1811L75.455 55.2161ZM71.728 53.1681L75.197 53.2401C75.4994 53.1235 75.7713 52.9398 75.9923 52.7028C76.2134 52.4659 76.3777 52.1818 76.473 51.8721C76.6323 51.4349 76.6498 50.9587 76.523 50.5111H72.728L71.728 53.1681Z" fill="white"/>
<path d="M87.094 66.549C86.4187 66.5535 85.751 66.4064 85.14 66.1186C84.5291 65.8308 83.9905 65.4096 83.564 64.886C83.1353 64.3845 82.8205 63.7959 82.6413 63.1609C82.4621 62.5259 82.4228 61.8596 82.526 61.208C83.106 58.284 84.008 55.253 84.9 52.308L83.429 53.008L82.129 51.668C82.9117 49.963 84.1305 48.4947 85.6623 47.4116C87.1941 46.3284 88.9846 45.6686 90.853 45.499L90.992 45.49H103.909L102.035 51.39L93.487 51.3C92.9894 51.7465 92.6096 52.3087 92.381 52.937L98.732 53.008L97.609 58.228L90.872 58.217C90.6199 58.8066 90.4354 59.4228 90.322 60.054L99.566 60.065L97.745 66.412L87.145 66.551L87.094 66.549ZM88.066 48.625L86.936 52.377C86.01 55.435 85.051 58.597 84.458 61.591C84.4114 61.9551 84.4426 62.325 84.5497 62.6762C84.6567 63.0274 84.8372 63.3518 85.079 63.628C85.3244 63.9318 85.6359 64.1755 85.9898 64.3405C86.3437 64.5055 86.7306 64.5874 87.121 64.58L96.254 64.46L96.954 62.031L88.57 62.021L88.385 61.273C88.104 60.135 88.875 56.665 90.085 56.29L90.378 56.246L96.021 56.255L96.302 54.955L90.09 54.886L90.181 53.826C90.2563 52.9684 90.5148 52.137 90.939 51.388C91.3632 50.6389 91.9433 49.9896 92.64 49.484L92.889 49.324L100.604 49.404L101.222 47.456H91.063C89.2585 47.6464 87.5513 48.3686 86.158 49.531L88.066 48.625Z" fill="white"/>
<path d="M143.475 40.468H56.524V41.334H143.475V40.468Z" fill="#FFEE00"/>
<path fill-rule="evenodd" clip-rule="evenodd" d="M76.097 40.6421L83.372 36.8311H117.672L124.772 40.6421H76.097Z" fill="#FFEE00"/>
<path fill-rule="evenodd" clip-rule="evenodd" d="M97.716 13.795V28.343L93.859 25.395C91.931 24.447 90.813 25.601 90.709 27.133L99.789 34.398L108.909 27.23C108.73 25.622 108.43 24.63 106.356 24.797L101.901 28.315V13.815C101.307 13.3411 100.57 13.082 99.8106 13.0798C99.0508 13.0777 98.3126 13.3325 97.716 13.803" fill="#FFEE00"/>
<path fill-rule="evenodd" clip-rule="evenodd" d="M100.665 65.2441L101.465 61.0541H111.092C113.039 60.0491 112.967 57.8681 110.772 57.8541L106.467 57.5621C102.567 57.0401 103.316 53.6621 104.62 50.4621L101.42 52.6621C103.063 49.4941 104.229 47.9021 106.494 47.0831C107.44 46.7312 108.439 46.5418 109.448 46.5231L119.871 46.4751L118.923 50.4581L110.731 50.4751C109.431 50.6751 108.306 51.0751 107.931 52.7071C107.731 53.5621 108.522 54.1431 109.212 54.4071L113.746 54.4941C114.427 54.5219 115.085 54.7417 115.646 55.1281C118.346 57.0161 116.755 62.3621 112.972 64.4451C112.166 64.8242 111.294 65.0451 110.405 65.0961L100.665 65.2441Z" fill="#1A1818"/>
<path fill-rule="evenodd" clip-rule="evenodd" d="M122.689 65.1559L128.107 65.1189L132.447 50.5599L137.297 50.5319L138.697 46.4709L126.124 46.4769C122.748 47.4619 121.1 49.5529 119.211 53.3319C120.209 52.0673 121.524 51.0897 123.022 50.4989L127.48 50.5739L122.689 65.1559Z" fill="#1A1818"/>
<path fill-rule="evenodd" clip-rule="evenodd" d="M72.043 49.527L70.319 54.127L75.334 54.227C75.795 54.0811 76.217 53.8326 76.5683 53.5002C76.9195 53.1678 77.1908 52.7601 77.3618 52.3077C77.5329 51.8554 77.5991 51.3702 77.5557 50.8886C77.5122 50.4069 77.3602 49.9414 77.111 49.527H72.043ZM69.588 56.893L67.864 61.493L72.88 61.593C73.341 61.447 73.7629 61.1984 74.114 60.8659C74.4651 60.5335 74.7363 60.1258 74.9072 59.6735C75.0781 59.2211 75.1443 58.7359 75.1008 58.2544C75.0573 57.7728 74.9052 57.3073 74.656 56.893H69.588ZM61.308 64.923L66.33 49.27C64.964 49.687 64.055 50.797 62.996 51.943C63.2085 50.8799 63.6487 49.8754 64.2863 48.9986C64.924 48.1219 65.744 47.3936 66.69 46.864C67.1378 46.6589 67.6202 46.5401 68.112 46.514L79.1 46.47C79.9131 46.4712 80.6962 46.7769 81.295 47.327C83.971 49.651 82.356 53.272 78.407 55.447C81.425 58.283 80.253 62.508 76.607 64.247C75.7823 64.6623 74.8832 64.9094 73.962 64.974L61.308 64.923Z" fill="#1A1818"/>
<path fill-rule="evenodd" clip-rule="evenodd" d="M102.564 46.4709H90.993C89.2815 46.6202 87.6404 47.2213 86.2375 48.2127C84.8345 49.2042 83.72 50.5505 83.008 52.1139L86.487 50.4649C85.38 54.1509 84.2 57.8339 83.493 61.3999C83.423 61.9191 83.4648 62.4472 83.6157 62.9489C83.7665 63.4506 84.0229 63.9142 84.3676 64.3086C84.7123 64.7031 85.1375 65.0193 85.6144 65.2359C86.0914 65.4526 86.6091 65.5648 87.133 65.5649L97 65.4349L98.26 61.0469L89.34 61.0359C89.071 59.9489 90.012 57.3429 90.376 57.2299L96.815 57.2399L97.515 53.9779L91.156 53.9069C91.2159 53.1984 91.4263 52.5108 91.7731 51.89C92.1199 51.2692 92.5951 50.7295 93.167 50.3069L101.315 50.3919L102.564 46.4709Z" fill="#1A1818"/>
</g>
<defs>
<clipPath id="clip0_272_130">
<rect width="98" height="79.46" fill="white" transform="translate(51 10)"/>
</clipPath>
</defs>
</svg>
